<svg width="1500" height="1500" viewBox="0 0 1500 1500" fill="none" xmlns="http://www.w3.org/2000/svg">
<g clip-path="url(#clip0)">
<rect y="-2.60156" width="1500" height="1505.31" rx="67" fill="#F4F6F9"/>
<path d="M1204.31 857.693C1226.77 786.294 1232.1 710.609 1219.87 636.767C1207.64 562.924 1178.2 492.999 1133.92 432.653C1089.64 372.306 1031.77 323.235 965.004 289.41C898.234 255.586 824.438 237.961 749.59 237.96C674.742 237.959 600.945 255.584 534.175 289.407C467.405 323.23 409.537 372.301 365.258 432.647C320.979 492.992 291.532 562.917 279.302 636.759C267.071 710.602 272.401 786.286 294.86 857.686L558.66 774.707C549.23 744.729 546.992 712.951 552.127 681.947C557.262 650.943 569.626 621.583 588.218 596.246C606.81 570.908 631.106 550.305 659.141 536.104C687.176 521.902 718.161 514.502 749.588 514.502C781.014 514.503 811.999 521.903 840.034 536.105C868.069 550.307 892.365 570.911 910.956 596.248C929.547 621.586 941.911 650.946 947.046 681.95C952.18 712.954 949.942 744.732 940.512 774.71L1204.31 857.693Z" fill="#071D69"/>
<path d="M624.021 901.284L749.586 998.797V1261.89L361.559 989.223L624.021 901.284Z" fill="#0D49A3"/>
<path d="M875.189 901.69L749.624 999.203V1262.3L1137.65 989.629L875.189 901.69Z" fill="#0D49A3"/>
</g>
<defs>
<clipPath id="clip0">
<rect width="1500" height="1500" fill="white"/>
</clipPath>
</defs>
</svg>
