<svg width="1500" height="1500" viewBox="0 0 1500 1500" fill="none" xmlns="http://www.w3.org/2000/svg">
<path fill-rule="evenodd" clip-rule="evenodd" d="M237 168C199.997 168 170 197.997 170 235V1264.89C170 1301.89 199.997 1331.89 237 1331.89H1262.79C1299.79 1331.89 1329.79 1301.89 1329.79 1264.89V235C1329.79 197.997 1299.79 168 1262.79 168H237ZM357 277C319.997 277 290 306.997 290 344V1155C290 1192 319.997 1222 357 1222H1142C1179 1222 1209 1192 1209 1155V344C1209 306.997 1179 277 1142 277H357Z" fill="#D0D6DF"/>
<path d="M520.136 930.247L592.335 860.876C630.641 911.2 677.182 938.478 743.414 940.124C779.811 940.947 815.373 931.893 846.52 913.786C852.606 920.018 868.597 936.714 871.461 939.654C833.035 963.992 788.404 976.22 742.459 975.162C690.787 973.869 641.501 955.527 602.001 922.957C602.359 922.252 556.414 967.049 555.937 967.52C567.274 1002.56 540.304 1040.89 500.685 1040.89C468.703 1040.77 444 1015.37 444 983.863C444 943.534 483.5 917.314 520.136 930.247V930.247ZM943.66 633.48C966.453 670.282 978.983 712.728 977.909 755.761C976.596 808.436 955.235 858.642 919.912 898.031C920.27 898.384 948.314 927.661 948.672 928.013C960.128 926.485 971.584 930.365 979.58 938.713C993.065 952.822 992.587 975.045 978.267 988.566C963.947 1001.85 941.392 1001.38 927.669 987.273C919.673 979.042 916.451 967.52 918.599 956.35C888.884 925.074 865.614 900.853 865.614 900.853C916.57 860.759 941.154 807.261 942.466 754.821C943.302 720.841 933.874 687.566 917.286 658.171L943.66 633.48V633.48ZM568.109 511.434C576.105 519.664 579.327 531.187 577.179 542.357L631.954 598.912C626.345 603.38 616.082 611.14 604.746 623.956C574.434 657.466 557.488 700.147 556.176 744.944C555.34 778.924 563.455 812.199 580.043 841.829L553.789 867.108C530.757 829.953 519.301 787.507 520.614 744.004C521.807 691.564 542.452 641.005 577.298 601.616L547.106 570.576C535.65 572.104 524.194 568.224 516.198 559.876C502.713 545.767 503.191 523.545 517.511 510.023C531.712 496.854 554.028 497.207 568.109 511.434ZM998.793 458.406C1029.82 458.406 1055 484.744 1055 515.196C1055 545.649 1029.82 571.281 998.793 571.281C991.275 571.399 982.086 569.988 979.818 569.165L904.756 639.359C865.733 588.095 813.225 561.875 753.319 560.346C716.921 559.523 681.359 568.342 650.451 586.684L625.271 560.817C663.697 536.361 708.329 524.25 754.273 525.308C805.946 526.602 855.232 544.944 894.732 577.748L943.779 532.363C941.989 526.837 941.154 521.075 941.154 515.314C941.034 483.921 967.765 458.406 998.793 458.406ZM750.335 582.334C756.899 582.334 763.343 582.804 769.906 583.627C863.108 595.15 929.101 678.983 917.644 770.694C905.949 862.522 820.863 927.543 727.781 916.255C634.579 904.733 568.587 820.9 580.043 729.071C591.141 643.945 663.697 582.569 750.335 582.334V582.334ZM679.927 722.722C680.643 749.412 694.486 771.87 718.592 784.098L705.465 844.886H793.416L780.289 784.098C804.275 771.282 818.596 750 818.954 722.722C818.476 684.156 788.165 655.114 749.381 654.174C711.074 655.114 681.001 683.333 679.927 722.722Z" fill="#0D49A3"/>
<path d="M1224.01 250.954L1228.4 547.778L927.211 256.924L1224.01 250.954Z" fill="#D0D6DF"/>
</svg>
