<svg width="300" height="300" viewBox="0 0 300 300" fill="none" xmlns="http://www.w3.org/2000/svg">
<path fill-rule="evenodd" clip-rule="evenodd" d="M189.046 193.97L221.932 227.201L149.913 299.977L117.027 266.746L189.046 193.97Z" fill="#3182CE"/>
<path fill-rule="evenodd" clip-rule="evenodd" d="M110.76 193.813L143.645 227.044L94.4263 276.78C86.4363 276.111 79.398 272.691 73.3113 266.522C67.2247 260.353 63.3012 252.695 61.541 243.549L110.76 193.813Z" fill="#3182CE"/>
<path fill-rule="evenodd" clip-rule="evenodd" d="M77.9618 227.044L110.847 193.813L182.866 266.589L149.981 299.82L77.9618 227.044Z" fill="#3182CE"/>
<path fill-rule="evenodd" clip-rule="evenodd" d="M156.093 227.201L188.978 193.97L238.416 243.927C237.869 254.033 234.745 261.967 229.043 267.729C223.341 273.491 215.503 276.634 205.531 277.158L156.093 227.201Z" fill="#3182CE"/>
<path d="M150.3 174C175.981 174 196.8 153.181 196.8 127.5C196.8 101.819 175.981 81 150.3 81C124.619 81 103.8 101.819 103.8 127.5C103.8 153.181 124.619 174 150.3 174Z" fill="white"/>
<path fill-rule="evenodd" clip-rule="evenodd" d="M150 0C218.262 0 273.6 55.8585 273.6 124.763C273.6 159.218 259.764 190.411 237.394 212.989L204.461 179.536C218.275 165.497 226.811 146.148 226.811 124.783C226.811 81.901 192.422 47.1384 150 47.1384C107.578 47.1384 73.1887 81.901 73.1887 124.783C73.1887 146.153 81.7298 165.507 95.5497 179.547L62.617 213C40.2408 190.421 26.4 159.224 26.4 124.763C26.4 55.8585 81.7376 0 150 0Z" fill="#233D81"/>
</svg>
