<?xml version="1.0" standalone="no"?>
<!DOCTYPE svg PUBLIC "-//W3C//DTD SVG 20010904//EN"
 "http://www.w3.org/TR/2001/REC-SVG-20010904/DTD/svg10.dtd">
<svg version="1.0" xmlns="http://www.w3.org/2000/svg"
 width="484.000000pt" height="484.000000pt" viewBox="0 0 484.000000 484.000000"
 preserveAspectRatio="xMidYMid meet">
<metadata>
Created by potrace 1.11, written by Peter Selinger 2001-2013
</metadata>
<g transform="translate(0.000000,484.000000) scale(0.100000,-0.100000)"
fill="#000000" stroke="none">
<path d="M2238 4835 c-1 -2 -28 -6 -58 -8 -95 -9 -191 -27 -313 -57 -741 -187
-1338 -743 -1580 -1470 -48 -142 -91 -338 -106 -480 -11 -101 -11 -376 0 -457
4 -32 10 -78 13 -103 9 -66 15 -96 37 -185 34 -138 40 -155 51 -155 10 0 175
51 328 100 30 10 129 41 220 70 197 61 236 74 315 99 97 31 289 92 300 95 6 2
19 6 30 10 11 5 25 9 31 11 8 2 6 27 -8 82 -23 92 -27 277 -9 368 73 363 324
641 668 740 276 80 556 35 798 -128 318 -214 478 -634 381 -1005 -7 -29 -10
-54 -7 -56 3 -2 79 -27 168 -55 89 -28 197 -62 240 -75 376 -120 564 -179 578
-182 6 -1 60 -18 121 -38 61 -20 115 -36 121 -36 16 0 75 220 88 332 2 24 9
77 14 118 11 96 11 340 0 450 -62 575 -351 1122 -785 1486 -104 86 -105 87
-189 144 -301 203 -608 319 -995 375 -48 7 -446 16 -452 10z"/>
<path d="M1230 1508 c-327 -110 -606 -203 -619 -207 -23 -7 -19 -11 55 -62 43
-31 129 -90 189 -132 61 -42 115 -80 120 -84 6 -5 39 -29 75 -53 36 -25 69
-49 75 -53 5 -4 63 -45 127 -90 65 -45 226 -158 358 -252 132 -93 248 -174
258 -180 10 -5 42 -28 71 -49 29 -22 103 -74 165 -117 61 -42 116 -81 121 -86
6 -4 24 -17 40 -27 17 -11 56 -39 88 -63 31 -23 61 -43 66 -43 4 0 95 61 202
137 107 75 230 161 274 192 44 30 141 98 215 151 74 52 155 108 180 125 25 16
47 33 50 36 3 3 56 41 119 85 62 43 141 98 175 122 33 24 77 54 96 68 19 13
46 32 60 41 132 93 324 228 363 255 74 50 92 66 87 71 -3 2 -257 89 -565 192
-308 103 -569 190 -580 195 -11 4 -31 12 -45 17 -14 6 -30 8 -36 6 -6 -2 -141
-105 -300 -228 -159 -124 -291 -225 -294 -225 -3 0 -36 25 -75 56 -38 30 -77
61 -85 67 -8 7 -44 34 -80 62 -36 27 -67 52 -70 55 -3 4 -32 26 -65 50 -33 24
-62 46 -65 50 -6 7 -132 104 -145 112 -5 3 -278 -84 -605 -194z"/>
</g>
</svg>
