<svg width="229" height="195" viewBox="0 0 229 195" fill="none" xmlns="http://www.w3.org/2000/svg">
<path fill-rule="evenodd" clip-rule="evenodd" d="M103.514 15.3383C92.5376 5.7847 78.1943 0 62.5 0C27.9822 0 0 27.9822 0 62.5C0 81.4975 8.47593 98.5153 21.8525 109.978L91.0595 177.224L118.573 128.594L83 69.391L83.6218 69.0174L83 68.7787L103.514 15.3383ZM111.674 66.6311L148.647 128.165L148.44 128.29L148.575 128.366L111.557 193.795C116.24 194.728 121.281 193.411 124.953 189.843L207.147 109.978C220.524 98.5154 229 81.4975 229 62.5C229 27.9822 201.018 0 166.5 0C154.463 0 143.22 3.40302 133.682 9.2995L111.674 66.6311Z" fill="#A6AFB9"/>
</svg>
