<svg width="280" height="222" viewBox="0 0 280 222" fill="none" xmlns="http://www.w3.org/2000/svg">
<path fill-rule="evenodd" clip-rule="evenodd" d="M279.2 111C279.2 172.304 229.504 222 168.2 222C116.93 222 73.778 187.24 61.0266 140H81.3276C93.5956 176.087 127.767 202.051 168.003 202.051C218.551 202.051 259.529 161.073 259.529 110.525C259.529 59.9773 218.551 19 168.003 19C126.314 19 91.1348 46.873 80.0847 85H60.2618C71.9647 36.2395 115.85 0 168.2 0C229.504 0 279.2 49.6964 279.2 111Z" fill="#235AAC"/>
<path fill-rule="evenodd" clip-rule="evenodd" d="M167.892 190.832C211.752 190.832 247.308 155.276 247.308 111.416C247.308 67.5558 211.752 32 167.892 32C133.293 32 103.861 54.1258 92.9751 85H171C172.657 85 174 86.3431 174 88V137C174 138.657 172.657 140 171 140H93.7754C105.251 169.737 134.108 190.832 167.892 190.832Z" fill="#235AAC"/>
<rect x="33.6" y="95.6" width="123.6" height="33.6" rx="3" fill="#235AAC"/>
<path d="M3.22741 113.005C1.61777 111.806 1.61776 109.394 3.22741 108.195L44.7072 77.2794C46.6861 75.8046 49.5 77.2168 49.5 79.6848L49.5 141.515C49.5 143.983 46.6861 145.395 44.7072 143.921L3.22741 113.005Z" fill="#235AAC"/>
</svg>
