<?xml version="1.0" standalone="no"?>
<!DOCTYPE svg PUBLIC "-//W3C//DTD SVG 20010904//EN"
 "http://www.w3.org/TR/2001/REC-SVG-20010904/DTD/svg10.dtd">
<svg version="1.0" xmlns="http://www.w3.org/2000/svg"
 width="324.000000pt" height="324.000000pt" viewBox="0 0 324.000000 324.000000"
 preserveAspectRatio="xMidYMid meet">
<metadata>
Created by potrace 1.11, written by Peter Selinger 2001-2013
</metadata>
<g transform="translate(0.000000,324.000000) scale(0.100000,-0.100000)"
fill="#000000" stroke="none">
<path d="M1618 3235 c-2 -2 -30 -6 -63 -9 -277 -27 -599 -160 -825 -343 -72
-57 -229 -220 -283 -293 -92 -125 -183 -290 -217 -395 -7 -22 -17 -46 -23 -52
-5 -7 -7 -13 -4 -13 3 0 -3 -25 -13 -55 -10 -30 -21 -67 -24 -82 -3 -15 -12
-68 -22 -118 -20 -107 -23 -374 -6 -480 7 -38 15 -84 18 -102 3 -17 14 -62 25
-100 11 -37 22 -72 23 -78 15 -53 64 -168 104 -245 152 -293 445 -574 735
-709 328 -151 639 -189 1027 -126 169 28 402 126 576 244 107 72 155 113 249
208 98 100 121 130 156 198 131 263 0 591 -278 695 -72 27 -200 36 -276 21
-112 -24 -250 -113 -317 -206 -21 -29 -97 -88 -151 -118 -137 -75 -357 -91
-489 -35 -196 83 -316 209 -377 397 -21 65 -26 247 -9 305 8 26 15 49 15 51 1
3 2 7 2 10 1 3 2 8 3 13 18 69 105 192 183 257 118 97 253 144 403 140 172 -4
293 -61 442 -206 58 -56 124 -110 157 -128 154 -82 321 -83 473 -4 202 105
305 322 263 553 -3 19 -24 73 -47 120 -36 74 -56 100 -167 210 -257 257 -558
408 -916 460 -70 11 -340 22 -347 15z"/>
<path d="M1653 1916 c-137 -43 -225 -169 -219 -312 4 -88 30 -149 91 -209 209
-210 564 -39 532 255 -21 192 -220 323 -404 266z"/>
</g>
</svg>
