<?xml version="1.0" standalone="no"?>
<!DOCTYPE svg PUBLIC "-//W3C//DTD SVG 20010904//EN"
 "http://www.w3.org/TR/2001/REC-SVG-20010904/DTD/svg10.dtd">
<svg version="1.0" xmlns="http://www.w3.org/2000/svg"
 width="831.000000pt" height="831.000000pt" viewBox="0 0 831.000000 831.000000"
 preserveAspectRatio="xMidYMid meet">
<metadata>
Created by potrace 1.11, written by Peter Selinger 2001-2013
</metadata>
<g transform="translate(0.000000,831.000000) scale(0.100000,-0.100000)"
fill="#000000" stroke="none">
<path d="M3910 8304 c-19 -2 -87 -9 -150 -15 -722 -68 -1439 -362 -2034 -837
-160 -127 -457 -425 -586 -587 -180 -227 -359 -513 -475 -759 -330 -698 -443
-1456 -334 -2221 37 -257 121 -595 148 -594 9 0 491 150 1071 333 787 249
1054 337 1052 347 -62 246 -80 422 -63 599 22 233 67 394 167 595 82 167 173
293 304 425 276 276 616 433 1020 471 195 19 446 -13 650 -81 106 -35 318
-145 420 -217 318 -227 555 -589 639 -975 58 -268 49 -502 -31 -817 -2 -10
278 -102 1057 -347 583 -184 1065 -334 1071 -334 7 0 14 10 17 22 3 13 21 84
41 158 43 160 78 343 102 535 23 176 26 649 6 830 -85 764 -364 1442 -840
2039 -127 160 -425 457 -587 586 -576 457 -1229 730 -1975 826 -118 15 -606
28 -690 18z"/>
<path d="M2068 2576 c-576 -193 -1049 -354 -1052 -357 -8 -7 3125 -2204 3143
-2203 16 0 3145 2194 3138 2200 -3 3 -2116 714 -2122 714 -1 0 -231 -178 -511
-395 l-508 -394 -40 33 c-194 156 -977 756 -988 755 -7 0 -484 -159 -1060
-353z"/>
</g>
</svg>
