<?xml version="1.0" standalone="no"?>
<!DOCTYPE svg PUBLIC "-//W3C//DTD SVG 20010904//EN"
 "http://www.w3.org/TR/2001/REC-SVG-20010904/DTD/svg10.dtd">
<svg version="1.0" xmlns="http://www.w3.org/2000/svg"
 width="726.000000pt" height="726.000000pt" viewBox="0 0 726.000000 726.000000"
 preserveAspectRatio="xMidYMid meet">
<metadata>
Created by potrace 1.11, written by Peter Selinger 2001-2013
</metadata>
<g transform="translate(0.000000,726.000000) scale(0.100000,-0.100000)"
fill="#000000" stroke="none">
<path d="M3368 7255 c-2 -2 -36 -6 -77 -10 -41 -4 -84 -9 -95 -11 -12 -2 -39
-6 -61 -9 -90 -9 -353 -66 -460 -99 -5 -1 -30 -8 -55 -15 -208 -57 -581 -225
-792 -357 -453 -283 -804 -625 -1091 -1064 -41 -63 -92 -146 -113 -185 -21
-38 -42 -71 -46 -73 -4 -2 -8 -8 -8 -14 0 -5 -24 -60 -54 -121 -87 -181 -150
-348 -203 -537 -40 -145 -53 -195 -58 -230 -2 -14 -4 -25 -5 -25 -1 0 -3 -9
-5 -20 -2 -11 -7 -36 -10 -55 -7 -35 -11 -59 -20 -135 -3 -22 -7 -49 -10 -61
-20 -87 -28 -624 -11 -759 4 -33 9 -78 11 -100 2 -22 9 -65 14 -95 6 -30 13
-71 16 -90 3 -19 8 -42 10 -50 4 -15 14 -64 20 -105 2 -11 13 -54 25 -95 12
-41 23 -79 24 -85 9 -34 19 -71 22 -76 2 -4 36 5 76 18 40 13 80 26 88 28 18
4 98 29 195 61 65 21 244 77 255 79 8 2 299 94 345 110 22 7 94 30 160 50 66
20 127 39 135 42 8 3 20 7 26 8 6 2 44 14 85 28 41 13 128 41 194 61 66 21
161 51 210 68 50 16 98 31 108 33 32 7 35 15 21 62 -8 27 -17 64 -20 83 -3 19
-7 42 -10 50 -25 71 -23 417 2 520 2 8 10 42 18 75 7 33 18 72 24 88 7 15 9
27 6 27 -2 0 3 15 13 33 9 17 18 40 20 50 3 16 72 155 106 212 66 111 220 289
307 354 19 14 40 31 45 37 41 46 320 199 390 214 6 1 16 6 23 12 6 6 12 8 12
4 0 -3 12 -1 28 5 194 77 603 85 812 17 19 -7 42 -13 50 -15 73 -17 252 -101
351 -165 52 -33 96 -63 99 -67 3 -4 16 -15 29 -24 91 -62 331 -342 331 -386 0
-5 3 -11 8 -13 11 -5 66 -113 97 -193 46 -116 65 -188 89 -336 12 -72 13 -332
3 -389 -3 -14 -8 -45 -12 -69 -4 -25 -15 -73 -25 -108 -16 -59 -16 -64 -1 -72
9 -5 18 -9 21 -9 3 -1 12 -3 20 -6 14 -5 160 -49 170 -51 3 -1 12 -4 20 -8 23
-8 124 -41 135 -43 6 -1 48 -14 95 -29 47 -15 92 -28 100 -31 8 -2 62 -19 120
-38 118 -39 429 -137 445 -141 5 -1 18 -5 27 -9 9 -4 22 -9 30 -10 14 -3 175
-53 353 -111 61 -19 119 -37 130 -40 25 -6 172 -53 202 -65 18 -7 23 -4 31 18
23 60 31 95 26 103 -3 5 -1 9 4 9 5 0 9 6 9 13 0 6 8 41 18 77 9 36 19 81 21
100 3 19 8 44 11 55 9 24 7 19 17 85 4 30 10 64 12 75 2 11 6 36 8 55 2 19 8
69 12 110 11 92 12 535 2 645 -4 44 -15 125 -23 180 -9 55 -18 114 -21 130 -2
17 -6 41 -9 55 -4 14 -8 34 -10 45 -2 11 -8 35 -13 53 -6 18 -11 36 -11 40 -3
33 -15 79 -24 90 -5 6 -7 12 -4 12 4 0 0 19 -9 41 -8 23 -16 51 -18 63 -2 12
-21 66 -40 121 -20 55 -38 105 -39 110 -1 6 -4 12 -7 15 -3 3 -11 23 -19 45
-17 50 -139 301 -183 377 -18 31 -51 87 -72 125 -22 37 -42 70 -46 73 -4 3
-26 34 -50 70 -46 69 -166 228 -184 245 -6 6 -36 39 -66 75 -70 82 -213 226
-310 310 -41 36 -77 67 -80 70 -3 3 -39 32 -80 63 -41 31 -79 61 -85 65 -42
33 -251 168 -305 198 -19 10 -37 22 -40 25 -10 11 -338 169 -352 169 -8 0 -18
4 -23 9 -9 8 -248 98 -285 107 -13 3 -88 24 -140 39 -20 6 -138 34 -170 40
-14 3 -36 8 -50 10 -14 3 -38 8 -55 10 -16 3 -52 10 -80 15 -27 5 -77 12 -110
16 -33 4 -73 9 -90 11 -37 5 -592 13 -597 8z"/>
<path d="M3550 4593 c-262 -35 -450 -142 -600 -341 -42 -56 -103 -178 -121
-242 -7 -25 -14 -49 -15 -55 -21 -74 -25 -237 -10 -335 30 -182 138 -368 293
-500 95 -80 271 -160 393 -177 86 -13 238 -7 325 11 93 20 226 83 310 146 41
31 171 168 185 196 8 16 22 37 30 46 16 17 79 168 85 203 2 11 4 20 6 20 2 0
6 24 17 102 8 63 7 173 -3 225 -3 16 -8 43 -11 61 -11 61 -67 192 -110 257
-79 120 -199 232 -308 287 -62 32 -161 69 -201 76 -17 3 -42 8 -56 11 -33 7
-176 13 -209 9z"/>
<path d="M2645 2601 c-27 -10 -57 -20 -65 -24 -8 -3 -184 -62 -390 -131 -206
-70 -381 -128 -388 -131 -7 -2 -13 -4 -15 -4 -1 0 -15 -5 -32 -11 -16 -7 -37
-13 -45 -15 -15 -4 -243 -81 -270 -92 -8 -3 -19 -7 -25 -8 -5 -2 -104 -35
-220 -75 -115 -39 -217 -73 -225 -75 -59 -16 -135 -44 -137 -51 -2 -8 86 -74
145 -109 9 -5 19 -13 22 -16 3 -3 39 -29 80 -57 161 -111 275 -191 285 -199 6
-5 71 -51 145 -103 74 -52 136 -98 138 -102 2 -4 10 -8 18 -8 8 0 14 -4 14 -9
0 -5 8 -11 18 -15 14 -5 109 -71 217 -150 73 -54 478 -336 482 -336 2 0 10 -6
17 -12 8 -7 22 -19 32 -26 11 -7 93 -65 184 -129 91 -64 194 -137 230 -161 36
-25 67 -48 70 -51 3 -3 17 -12 31 -19 15 -8 37 -24 50 -36 13 -12 45 -35 71
-51 27 -17 48 -33 48 -37 0 -5 5 -8 11 -8 5 0 27 -13 47 -29 39 -30 352 -249
380 -266 9 -5 19 -13 22 -16 3 -3 14 -11 26 -17 17 -9 25 -8 40 6 10 10 44 34
74 55 96 64 206 141 236 164 16 13 45 33 64 46 96 64 245 171 248 179 2 4 8 8
12 8 5 0 39 21 75 47 37 27 77 55 88 63 12 8 87 61 167 117 80 56 167 117 193
135 27 18 55 39 62 46 7 6 18 12 23 12 6 0 12 3 14 8 2 4 32 27 68 52 36 24
70 48 75 52 6 5 62 44 125 88 63 44 124 86 135 94 11 8 58 42 105 75 47 33 99
69 115 81 70 49 366 258 440 309 116 81 298 209 310 218 6 5 40 28 77 53 37
25 68 47 68 50 0 5 -53 25 -90 34 -8 2 -76 25 -150 51 -74 25 -155 52 -180 59
-49 15 -433 144 -465 157 -11 4 -49 18 -85 29 -36 12 -74 26 -85 30 -11 5 -29
11 -40 13 -16 4 -504 171 -555 190 -53 20 -232 77 -241 77 -6 0 -16 -6 -24
-12 -7 -7 -25 -22 -41 -33 -37 -27 -176 -137 -192 -152 -7 -7 -17 -13 -20 -13
-4 0 -18 -10 -32 -23 -14 -12 -45 -38 -70 -57 -25 -19 -46 -38 -48 -42 -2 -5
-10 -8 -17 -8 -7 0 -15 -3 -17 -8 -1 -4 -32 -30 -68 -57 -36 -28 -70 -54 -76
-60 -6 -5 -23 -19 -39 -30 -15 -11 -42 -31 -59 -45 -127 -104 -208 -161 -219
-152 -7 5 -122 94 -255 198 -134 104 -251 194 -260 199 -9 6 -27 20 -39 33
-12 12 -25 22 -28 22 -3 0 -11 5 -18 10 -7 6 -39 31 -72 57 -33 26 -80 63
-105 83 -127 100 -118 97 -195 71z"/>
</g>
</svg>
