<svg width="1500" height="1500" viewBox="0 0 1500 1500" fill="none" xmlns="http://www.w3.org/2000/svg">
<path d="M1462.5 1049.62H894.234C892.5 1089.32 859.758 1113.75 817.5 1113.75H675C631.195 1113.75 597.609 1078.74 598.195 1049.62H37.5C16.875 1049.62 0 1064.05 0 1081.69V1113.75C0 1184.29 67.5 1242 150 1242H1350C1432.5 1242 1500 1184.29 1500 1113.75V1081.69C1500 1064.05 1483.13 1049.62 1462.5 1049.62ZM1350 312.188C1350 259.284 1299.37 216 1237.5 216H262.5C200.625 216 150 259.284 150 312.188V985.5H1350V312.188ZM1200 857.25H300V344.25H1200V857.25Z" fill="#D0D6DF"/>
<path d="M940.175 677.944C949.559 648.111 951.787 616.488 946.677 585.634C941.567 554.78 929.264 525.563 910.763 500.349C892.262 475.134 868.083 454.63 840.185 440.498C812.287 426.365 781.452 419 750.178 419C718.904 419 688.07 426.364 660.171 440.496C632.272 454.629 608.094 475.132 589.592 500.346C571.091 525.561 558.787 554.777 553.677 585.631C548.567 616.485 550.794 648.108 560.178 677.941L670.402 643.27C666.462 630.744 665.527 617.466 667.672 604.512C669.818 591.557 674.984 579.29 682.752 568.703C690.52 558.116 700.672 549.508 712.386 543.574C724.1 537.64 737.046 534.548 750.177 534.548C763.308 534.548 776.255 537.64 787.969 543.574C799.682 549.508 809.834 558.117 817.602 568.704C825.37 579.291 830.536 591.558 832.681 604.513C834.827 617.467 833.892 630.745 829.951 643.271L940.175 677.944Z" fill="#071D69"/>
<path d="M697.712 696.158L750.177 736.902V846.831L588.047 732.902L697.712 696.158Z" fill="#0D49A3"/>
<path d="M802.657 696.328L750.192 737.072V847L912.323 733.071L802.657 696.328Z" fill="#0D49A3"/>
</svg>
