<svg width="1500" height="1500" viewBox="0 0 1500 1500" fill="none" xmlns="http://www.w3.org/2000/svg">
<path fill-rule="evenodd" clip-rule="evenodd" d="M403 102C365.997 102 336 131.997 336 169V1331.89C336 1368.89 365.997 1398.89 403 1398.89H1097.18C1134.18 1398.89 1164.18 1368.89 1164.18 1331.89V169C1164.18 131.997 1134.18 102 1097.18 102H403ZM517 265C479.997 265 450 294.997 450 332V1130.71C450 1167.71 479.997 1197.71 517 1197.71H983C1020 1197.71 1050 1167.71 1050 1130.71V332C1050 294.997 1020 265 983 265H517ZM787 180.5C787 201.211 770.211 218 749.5 218C728.789 218 712 201.211 712 180.5C712 159.789 728.789 143 749.5 143C770.211 143 787 159.789 787 180.5ZM592.159 1328.57C587.62 1328.57 583.94 1332.25 583.94 1336.79C583.94 1341.33 587.62 1345.01 592.159 1345.01H909.049C913.589 1345.01 917.269 1341.33 917.269 1336.79C917.269 1332.25 913.589 1328.57 909.049 1328.57H592.159Z" fill="#D0D6DF"/>
<path d="M998.616 809.575C1010.89 770.567 1013.8 729.218 1007.12 688.875C1000.44 648.532 984.349 610.329 960.158 577.359C935.967 544.389 904.352 517.58 867.873 499.1C831.394 480.621 791.076 470.991 750.184 470.991C709.291 470.99 668.973 480.619 632.494 499.098C596.015 517.577 564.399 544.387 540.208 577.356C516.016 610.325 499.928 648.528 493.246 688.871C486.565 729.214 489.477 770.563 501.747 809.572L645.871 764.237C640.719 747.859 639.497 730.497 642.302 713.558C645.108 696.62 651.862 680.579 662.02 666.737C672.177 652.894 685.451 641.637 700.768 633.879C716.085 626.12 733.013 622.077 750.183 622.077C767.352 622.077 784.281 626.12 799.597 633.879C814.913 641.638 828.188 652.895 838.345 666.738C848.502 680.581 855.256 696.621 858.062 713.56C860.867 730.499 859.644 747.86 854.492 764.239L998.616 809.575Z" fill="#071D69"/>
<path d="M681.581 833.392L750.182 886.667V1030.41L538.187 881.436L681.581 833.392Z" fill="#0D49A3"/>
<path d="M818.804 833.614L750.202 886.889V1030.63L962.198 881.658L818.804 833.614Z" fill="#0D49A3"/>
</svg>
