<svg width="1248" height="1341" viewBox="0 0 1248 1341" fill="none" xmlns="http://www.w3.org/2000/svg">
<path d="M1219.17 811.197C1248.57 717.74 1255.55 618.673 1239.54 522.017C1223.54 425.361 1184.99 333.833 1127.03 254.843C1069.08 175.852 993.333 111.62 905.935 67.346C818.537 23.0721 721.941 0.000759265 623.969 1.87365e-08C525.996 -0.000759228 429.401 23.0691 342.002 67.3417C254.603 111.614 178.858 175.845 120.899 254.835C62.9395 333.824 24.3951 425.352 8.38628 522.007C-7.62255 618.663 -0.645931 717.73 28.7513 811.188L374.051 702.574C361.708 663.334 358.779 621.738 365.501 581.155C372.222 540.572 388.406 502.143 412.741 468.977C437.077 435.812 468.88 408.843 505.576 390.254C542.272 371.666 582.83 361.979 623.966 361.98C665.102 361.98 705.659 371.667 742.355 390.256C779.051 408.846 810.854 435.815 835.189 468.981C859.524 502.146 875.707 540.576 882.428 581.159C889.149 621.742 886.219 663.338 873.875 702.578L1219.17 811.197Z" fill="#F4F6F9"/>
<path d="M459.606 868.258L623.963 995.897V1340.27L116.057 983.365L459.606 868.258Z" fill="white"/>
<path d="M788.372 868.789L624.013 996.428V1340.8L1131.92 983.896L788.372 868.789Z" fill="white"/>
</svg>
