<svg width="273" height="95" viewBox="0 0 273 95" fill="none" xmlns="http://www.w3.org/2000/svg">
<path d="M1.13662 53.0655C-0.0254715 49.3712 -0.301308 45.4553 0.331439 41.6346C0.964186 37.8139 2.48773 34.1959 4.77873 31.0736C7.06973 27.9512 10.0638 25.4122 13.5185 23.6621C16.9732 21.912 20.7915 21 24.6642 21C28.5369 21 32.3552 21.9119 35.81 23.6619C39.2647 25.412 42.2588 27.9509 44.5499 31.0733C46.8409 34.1956 48.3645 37.8135 48.9973 41.6342C49.6301 45.4549 49.3543 49.3708 48.1923 53.0651L34.5431 48.7717C35.031 47.2206 35.1468 45.5764 34.8811 43.9722C34.6154 42.3681 33.9757 40.849 33.0137 39.538C32.0518 38.227 30.7947 37.161 29.3441 36.4262C27.8936 35.6914 26.2904 35.3085 24.6643 35.3085C23.0383 35.3085 21.4351 35.6915 19.9846 36.4263C18.534 37.1611 17.2769 38.2271 16.315 39.5381C15.3531 40.8491 14.7134 42.3682 14.4477 43.9724C14.182 45.5766 14.2978 47.2208 14.7858 48.7719L1.13662 53.0655Z" fill="#071D69"/>
<path d="M31.1613 55.321L24.6644 60.3664V73.979L44.7413 59.871L31.1613 55.321Z" fill="#0D49A3"/>
<path d="M18.1656 55.3419L24.6625 60.3873V74L4.58557 59.892L18.1656 55.3419Z" fill="#0D49A3"/>
<path d="M109.926 48C109.926 53.5467 107.979 58.2667 104.086 62.16C100.192 66.0533 95.4724 68 89.9258 68C84.3524 68 79.6191 66.0667 75.7258 62.2C71.8591 58.3067 69.9258 53.5733 69.9258 48C69.9258 42.4267 71.8591 37.7067 75.7258 33.84C79.6191 29.9467 84.3524 28 89.9258 28C95.4991 28 100.219 29.9467 104.086 33.84C107.979 37.7067 109.926 42.4267 109.926 48ZM102.846 43.04C102.846 40.5067 101.939 38.3333 100.126 36.52C98.3391 34.7067 96.1791 33.8 93.6458 33.8C91.0858 33.8 88.8991 34.7067 87.0858 36.52C85.2724 38.3067 84.3658 40.48 84.3658 43.04C84.3658 45.6 85.2724 47.7867 87.0858 49.6C88.8991 51.3867 91.0858 52.28 93.6458 52.28C96.1791 52.28 98.3391 51.3733 100.126 49.56C101.939 47.7467 102.846 45.5733 102.846 43.04ZM183.71 68H177.71V46C177.71 41.4933 176.883 38.3733 175.23 36.64C173.363 34.72 171.39 33.8 169.31 33.88C165.763 33.9867 163.27 35.2 161.83 37.52C160.417 39.8133 159.71 42.64 159.71 46V68H145.71V46C145.71 41.3867 144.683 38.2267 142.63 36.52C140.977 35.1333 139.057 34.4133 136.87 34.36C135.083 34.3067 133.43 34.6667 131.91 35.44C130.257 36.2933 129.11 37.4933 128.47 39.04C127.963 40.24 127.71 42.56 127.71 46V68H113.71V46C113.71 40.6933 115.79 36.3467 119.95 32.96C124.003 29.6533 128.443 28 133.27 28C137.137 28 140.283 28.8133 142.71 30.44C144.977 31.9867 147.163 34.2133 149.27 37.12C153.377 31.04 158.857 28 165.71 28C170.937 28 175.243 29.6933 178.63 33.08C182.017 36.4667 183.71 40.7733 183.71 46V68ZM228.09 48C228.09 53.5467 226.143 58.2667 222.25 62.16C218.357 66.0533 213.637 68 208.09 68C202.517 68 197.783 66.0667 193.89 62.2C190.023 58.3067 188.09 53.5733 188.09 48C188.09 42.4267 190.023 37.7067 193.89 33.84C197.783 29.9467 202.517 28 208.09 28C213.663 28 218.383 29.9467 222.25 33.84C226.143 37.7067 228.09 42.4267 228.09 48ZM221.01 43.04C221.01 40.5067 220.103 38.3333 218.29 36.52C216.503 34.7067 214.343 33.8 211.81 33.8C209.25 33.8 207.063 34.7067 205.25 36.52C203.437 38.3067 202.53 40.48 202.53 43.04C202.53 45.6 203.437 47.7867 205.25 49.6C207.063 51.3867 209.25 52.28 211.81 52.28C214.343 52.28 216.503 51.3733 218.29 49.56C220.103 47.7467 221.01 45.5733 221.01 43.04Z" fill="#071D69"/>
</svg>
