<svg width="2451" height="599" viewBox="0 0 2451 599" fill="none" xmlns="http://www.w3.org/2000/svg">
<mask id="path-1-inside-1" fill="white">
<path d="M544.166 362.07C557.288 320.356 560.402 276.138 553.258 232.997C546.113 189.856 528.91 149.003 503.041 113.746C477.172 78.4899 443.364 49.8205 404.355 30.0592C365.346 10.298 322.231 0.00033889 278.502 8.36285e-09C234.773 -0.000338874 191.659 10.2966 152.649 30.0573C113.64 49.8179 79.8314 78.4868 53.9619 113.743C28.0924 148.999 10.8885 189.851 3.74313 232.993C-3.40225 276.134 -0.288305 320.352 12.8328 362.066L166.954 313.587C161.445 296.072 160.137 277.507 163.138 259.393C166.138 241.279 173.361 224.126 184.223 209.323C195.085 194.52 209.28 182.483 225.659 174.186C242.038 165.889 260.14 161.566 278.501 161.566C296.861 161.566 314.964 165.89 331.343 174.187C347.722 182.484 361.916 194.522 372.778 209.325C383.64 224.128 390.863 241.281 393.863 259.395C396.863 277.508 395.555 296.074 390.045 313.589L544.166 362.07Z"/>
</mask>
<path d="M544.166 362.07C557.288 320.356 560.402 276.138 553.258 232.997C546.113 189.856 528.91 149.003 503.041 113.746C477.172 78.4899 443.364 49.8205 404.355 30.0592C365.346 10.298 322.231 0.00033889 278.502 8.36285e-09C234.773 -0.000338874 191.659 10.2966 152.649 30.0573C113.64 49.8179 79.8314 78.4868 53.9619 113.743C28.0924 148.999 10.8885 189.851 3.74313 232.993C-3.40225 276.134 -0.288305 320.352 12.8328 362.066L166.954 313.587C161.445 296.072 160.137 277.507 163.138 259.393C166.138 241.279 173.361 224.126 184.223 209.323C195.085 194.52 209.28 182.483 225.659 174.186C242.038 165.889 260.14 161.566 278.501 161.566C296.861 161.566 314.964 165.89 331.343 174.187C347.722 182.484 361.916 194.522 372.778 209.325C383.64 224.128 390.863 241.281 393.863 259.395C396.863 277.508 395.555 296.074 390.045 313.589L544.166 362.07Z" fill="#071D69" stroke="#8F8F8F" stroke-width="2" mask="url(#path-1-inside-1)"/>
<path d="M205.14 387.538L278.5 444.508V598.217L51.8008 438.915L205.14 387.538Z" fill="#0D49A3"/>
<path d="M351.66 387.774L278.3 444.745V598.453L505 439.151L351.66 387.774Z" fill="#0D49A3"/>
<path d="M950 199C950 229.507 939.293 255.467 917.88 276.88C896.467 298.293 870.507 309 840 309C809.347 309 783.313 298.367 761.9 277.1C740.633 255.687 730 229.653 730 199C730 168.347 740.633 142.387 761.9 121.12C783.313 99.7067 809.347 89 840 89C870.653 89 896.613 99.7067 917.88 121.12C939.293 142.387 950 168.347 950 199ZM911.06 171.72C911.06 157.787 906.073 145.833 896.1 135.86C886.273 125.887 874.393 120.9 860.46 120.9C846.38 120.9 834.353 125.887 824.38 135.86C814.407 145.687 809.42 157.64 809.42 171.72C809.42 185.8 814.407 197.827 824.38 207.8C834.353 217.627 846.38 222.54 860.46 222.54C874.393 222.54 886.273 217.553 896.1 207.58C906.073 197.607 911.06 185.653 911.06 171.72ZM1355.81 309H1322.81V188C1322.81 163.213 1318.27 146.053 1309.17 136.52C1298.91 125.96 1288.05 120.9 1276.61 121.34C1257.11 121.927 1243.39 128.6 1235.47 141.36C1227.7 153.973 1223.81 169.52 1223.81 188V309H1146.81V188C1146.81 162.627 1141.17 145.247 1129.87 135.86C1120.78 128.233 1110.22 124.273 1098.19 123.98C1088.37 123.687 1079.27 125.667 1070.91 129.92C1061.82 134.613 1055.51 141.213 1051.99 149.72C1049.21 156.32 1047.81 169.08 1047.81 188V309H970.814V188C970.814 158.813 982.254 134.907 1005.13 116.28C1027.43 98.0933 1051.85 89 1078.39 89C1099.66 89 1116.97 93.4733 1130.31 102.42C1142.78 110.927 1154.81 123.173 1166.39 139.16C1188.98 105.72 1219.12 89 1256.81 89C1285.56 89 1309.25 98.3133 1327.87 116.94C1346.5 135.567 1355.81 159.253 1355.81 188V309ZM1599.9 199C1599.9 229.507 1589.2 255.467 1567.78 276.88C1546.37 298.293 1520.41 309 1489.9 309C1459.25 309 1433.22 298.367 1411.8 277.1C1390.54 255.687 1379.9 229.653 1379.9 199C1379.9 168.347 1390.54 142.387 1411.8 121.12C1433.22 99.7067 1459.25 89 1489.9 89C1520.56 89 1546.52 99.7067 1567.78 121.12C1589.2 142.387 1599.9 168.347 1599.9 199ZM1560.96 171.72C1560.96 157.787 1555.98 145.833 1546 135.86C1536.18 125.887 1524.3 120.9 1510.36 120.9C1496.28 120.9 1484.26 125.887 1474.28 135.86C1464.31 145.687 1459.32 157.64 1459.32 171.72C1459.32 185.8 1464.31 197.827 1474.28 207.8C1484.26 217.627 1496.28 222.54 1510.36 222.54C1524.3 222.54 1536.18 217.553 1546 207.58C1555.98 197.607 1560.96 185.653 1560.96 171.72Z" fill="#071D69"/>
<path d="M786.02 528C780.02 528 774.62 526.5 769.82 523.5C765.02 520.38 761.24 516.18 758.48 510.9C755.72 505.62 754.34 499.68 754.34 493.08V448.62H746.06C743.54 448.62 741.5 447.9 739.94 446.46C738.38 445.02 737.6 443.22 737.6 441.06C737.6 438.66 738.38 436.74 739.94 435.3C741.5 433.86 743.54 433.14 746.06 433.14H754.34V407.22C754.34 404.58 755.18 402.42 756.86 400.74C758.54 399.06 760.7 398.22 763.34 398.22C765.98 398.22 768.14 399.06 769.82 400.74C771.5 402.42 772.34 404.58 772.34 407.22V433.14H787.64C790.16 433.14 792.2 433.86 793.76 435.3C795.32 436.74 796.1 438.66 796.1 441.06C796.1 443.22 795.32 445.02 793.76 446.46C792.2 447.9 790.16 448.62 787.64 448.62H772.34V493.08C772.34 497.88 773.66 501.9 776.3 505.14C778.94 508.38 782.18 510 786.02 510H792.14C794.3 510 796.1 510.84 797.54 512.52C799.1 514.2 799.88 516.36 799.88 519C799.88 521.64 798.86 523.8 796.82 525.48C794.9 527.16 792.38 528 789.26 528H786.02ZM868.706 528.72C858.746 528.72 849.866 526.62 842.066 522.42C834.386 518.1 828.326 512.22 823.886 504.78C819.566 497.22 817.406 488.58 817.406 478.86C817.406 469.02 819.446 460.38 823.526 452.94C827.726 445.38 833.486 439.5 840.806 435.3C848.126 430.98 856.526 428.82 866.006 428.82C875.366 428.82 883.406 430.92 890.126 435.12C896.846 439.2 901.946 444.9 905.426 452.22C909.026 459.42 910.826 467.76 910.826 477.24C910.826 479.52 910.046 481.44 908.486 483C906.926 484.44 904.946 485.16 902.546 485.16H834.146C835.466 493.44 839.246 500.22 845.486 505.5C851.846 510.66 859.586 513.24 868.706 513.24C872.426 513.24 876.206 512.58 880.046 511.26C884.006 509.82 887.186 508.2 889.586 506.4C891.386 505.08 893.306 504.42 895.346 504.42C897.506 504.3 899.366 504.9 900.926 506.22C902.966 508.02 904.046 510 904.166 512.16C904.286 514.32 903.326 516.18 901.286 517.74C897.206 520.98 892.106 523.62 885.986 525.66C879.986 527.7 874.226 528.72 868.706 528.72ZM866.006 444.3C857.126 444.3 849.986 446.76 844.586 451.68C839.186 456.6 835.766 462.96 834.326 470.76H894.266C893.186 463.08 890.246 456.78 885.446 451.86C880.646 446.82 874.166 444.3 866.006 444.3ZM970.063 528.72C961.663 528.72 953.863 527.46 946.663 524.94C939.583 522.3 934.063 519 930.103 515.04C928.303 513.12 927.523 510.96 927.763 508.56C928.123 506.04 929.323 504 931.363 502.44C933.763 500.52 936.103 499.74 938.383 500.1C940.783 500.34 942.823 501.36 944.503 503.16C946.543 505.44 949.783 507.6 954.223 509.64C958.783 511.56 963.823 512.52 969.343 512.52C976.303 512.52 981.583 511.38 985.183 509.1C988.903 506.82 990.823 503.88 990.943 500.28C991.063 496.68 989.323 493.56 985.723 490.92C982.243 488.28 975.823 486.12 966.463 484.44C954.343 482.04 945.523 478.44 940.003 473.64C934.603 468.84 931.903 462.96 931.903 456C931.903 449.88 933.703 444.84 937.303 440.88C940.903 436.8 945.523 433.8 951.163 431.88C956.803 429.84 962.683 428.82 968.803 428.82C976.723 428.82 983.743 430.08 989.863 432.6C995.983 435.12 1000.84 438.6 1004.44 443.04C1006.12 444.96 1006.9 447 1006.78 449.16C1006.66 451.2 1005.64 452.94 1003.72 454.38C1001.8 455.7 999.523 456.12 996.883 455.64C994.243 455.16 992.023 454.08 990.223 452.4C987.223 449.52 983.983 447.54 980.503 446.46C977.023 445.38 973.003 444.84 968.443 444.84C963.163 444.84 958.663 445.74 954.943 447.54C951.343 449.34 949.543 451.98 949.543 455.46C949.543 457.62 950.083 459.6 951.163 461.4C952.363 463.08 954.643 464.64 958.003 466.08C961.363 467.4 966.283 468.72 972.763 470.04C986.323 472.68 995.683 476.46 1000.84 481.38C1006.12 486.18 1008.76 492.12 1008.76 499.2C1008.76 504.72 1007.26 509.7 1004.26 514.14C1001.38 518.58 997.063 522.12 991.303 524.76C985.663 527.4 978.583 528.72 970.063 528.72ZM1067.8 528C1061.8 528 1056.4 526.5 1051.6 523.5C1046.8 520.38 1043.02 516.18 1040.26 510.9C1037.5 505.62 1036.12 499.68 1036.12 493.08V448.62H1027.84C1025.32 448.62 1023.28 447.9 1021.72 446.46C1020.16 445.02 1019.38 443.22 1019.38 441.06C1019.38 438.66 1020.16 436.74 1021.72 435.3C1023.28 433.86 1025.32 433.14 1027.84 433.14H1036.12V407.22C1036.12 404.58 1036.96 402.42 1038.64 400.74C1040.32 399.06 1042.48 398.22 1045.12 398.22C1047.76 398.22 1049.92 399.06 1051.6 400.74C1053.28 402.42 1054.12 404.58 1054.12 407.22V433.14H1069.42C1071.94 433.14 1073.98 433.86 1075.54 435.3C1077.1 436.74 1077.88 438.66 1077.88 441.06C1077.88 443.22 1077.1 445.02 1075.54 446.46C1073.98 447.9 1071.94 448.62 1069.42 448.62H1054.12V493.08C1054.12 497.88 1055.44 501.9 1058.08 505.14C1060.72 508.38 1063.96 510 1067.8 510H1073.92C1076.08 510 1077.88 510.84 1079.32 512.52C1080.88 514.2 1081.66 516.36 1081.66 519C1081.66 521.64 1080.64 523.8 1078.6 525.48C1076.68 527.16 1074.16 528 1071.04 528H1067.8ZM1115.2 528C1112.56 528 1110.34 527.16 1108.54 525.48C1106.86 523.68 1106.02 521.46 1106.02 518.82V438.72C1106.02 435.96 1106.86 433.74 1108.54 432.06C1110.34 430.38 1112.56 429.54 1115.2 429.54C1117.96 429.54 1120.18 430.38 1121.86 432.06C1123.54 433.74 1124.38 435.96 1124.38 438.72V518.82C1124.38 521.46 1123.54 523.68 1121.86 525.48C1120.18 527.16 1117.96 528 1115.2 528ZM1115.2 413.52C1111.96 413.52 1109.14 412.38 1106.74 410.1C1104.46 407.7 1103.32 404.88 1103.32 401.64C1103.32 398.4 1104.46 395.64 1106.74 393.36C1109.14 390.96 1111.96 389.76 1115.2 389.76C1118.44 389.76 1121.2 390.96 1123.48 393.36C1125.88 395.64 1127.08 398.4 1127.08 401.64C1127.08 404.88 1125.88 407.7 1123.48 410.1C1121.2 412.38 1118.44 413.52 1115.2 413.52ZM1167.72 528.18C1165.08 528.18 1162.86 527.34 1161.06 525.66C1159.38 523.86 1158.54 521.64 1158.54 519V438.72C1158.54 435.96 1159.38 433.74 1161.06 432.06C1162.86 430.38 1165.08 429.54 1167.72 429.54C1170.48 429.54 1172.7 430.38 1174.38 432.06C1176.06 433.74 1176.9 435.96 1176.9 438.72V440.7C1180.62 436.98 1185.12 434.04 1190.4 431.88C1195.68 429.72 1201.38 428.64 1207.5 428.64C1215.78 428.64 1223.16 430.44 1229.64 434.04C1236.24 437.52 1241.4 442.68 1245.12 449.52C1248.96 456.36 1250.88 464.76 1250.88 474.72V519C1250.88 521.64 1249.98 523.86 1248.18 525.66C1246.5 527.34 1244.34 528.18 1241.7 528.18C1239.06 528.18 1236.84 527.34 1235.04 525.66C1233.36 523.86 1232.52 521.64 1232.52 519V474.72C1232.52 464.52 1229.76 457.08 1224.24 452.4C1218.84 447.6 1212.06 445.2 1203.9 445.2C1198.86 445.2 1194.3 446.22 1190.22 448.26C1186.14 450.3 1182.9 453.06 1180.5 456.54C1178.1 459.9 1176.9 463.8 1176.9 468.24V519C1176.9 521.64 1176.06 523.86 1174.38 525.66C1172.7 527.34 1170.48 528.18 1167.72 528.18ZM1322.28 528.72C1313.28 528.72 1305.3 526.62 1298.34 522.42C1291.5 518.1 1286.1 512.22 1282.14 504.78C1278.18 497.22 1276.2 488.58 1276.2 478.86C1276.2 469.02 1278.3 460.38 1282.5 452.94C1286.82 445.38 1292.7 439.5 1300.14 435.3C1307.58 430.98 1316.16 428.82 1325.88 428.82C1335.48 428.82 1344 430.98 1351.44 435.3C1358.88 439.5 1364.7 445.38 1368.9 452.94C1373.22 460.38 1375.38 469.02 1375.38 478.86V517.74C1375.38 527.22 1373.28 535.8 1369.08 543.48C1364.88 551.28 1359 557.46 1351.44 562.02C1344 566.58 1335.36 568.86 1325.52 568.86C1317 568.86 1309.02 567.18 1301.58 563.82C1294.14 560.46 1287.84 555.54 1282.68 549.06C1281.12 547.02 1280.52 544.92 1280.88 542.76C1281.36 540.6 1282.56 538.86 1284.48 537.54C1286.64 536.1 1288.86 535.62 1291.14 536.1C1293.54 536.58 1295.46 537.78 1296.9 539.7C1300.14 543.78 1304.22 546.96 1309.14 549.24C1314.06 551.52 1319.64 552.66 1325.88 552.66C1331.64 552.66 1336.92 551.28 1341.72 548.52C1346.64 545.76 1350.54 541.68 1353.42 536.28C1356.3 530.88 1357.74 524.28 1357.74 516.48V507.66C1354.02 514.14 1349.1 519.3 1342.98 523.14C1336.86 526.86 1329.96 528.72 1322.28 528.72ZM1325.88 512.52C1332.12 512.52 1337.64 511.08 1342.44 508.2C1347.24 505.32 1350.96 501.36 1353.6 496.32C1356.36 491.28 1357.74 485.46 1357.74 478.86C1357.74 472.26 1356.36 466.44 1353.6 461.4C1350.96 456.24 1347.24 452.22 1342.44 449.34C1337.64 446.46 1332.12 445.02 1325.88 445.02C1319.64 445.02 1314.12 446.46 1309.32 449.34C1304.52 452.22 1300.74 456.24 1297.98 461.4C1295.22 466.44 1293.84 472.26 1293.84 478.86C1293.84 485.46 1295.22 491.28 1297.98 496.32C1300.74 501.36 1304.52 505.32 1309.32 508.2C1314.12 511.08 1319.64 512.52 1325.88 512.52ZM1496.47 528.72C1487.71 528.72 1479.85 526.56 1472.89 522.24C1465.93 517.8 1460.41 511.86 1456.33 504.42C1452.37 496.86 1450.39 488.34 1450.39 478.86C1450.39 469.38 1452.55 460.86 1456.87 453.3C1461.31 445.74 1467.25 439.8 1474.69 435.48C1482.25 431.04 1490.71 428.82 1500.07 428.82C1509.43 428.82 1517.83 431.04 1525.27 435.48C1532.71 439.8 1538.59 445.74 1542.91 453.3C1547.35 460.86 1549.57 469.38 1549.57 478.86V519C1549.57 521.64 1548.67 523.86 1546.87 525.66C1545.19 527.34 1543.03 528.18 1540.39 528.18C1537.75 528.18 1535.53 527.34 1533.73 525.66C1532.05 523.86 1531.21 521.64 1531.21 519V512.34C1527.01 517.38 1521.91 521.4 1515.91 524.4C1510.03 527.28 1503.55 528.72 1496.47 528.72ZM1500.07 512.52C1506.19 512.52 1511.65 511.08 1516.45 508.2C1521.25 505.2 1525.03 501.18 1527.79 496.14C1530.55 490.98 1531.93 485.22 1531.93 478.86C1531.93 472.38 1530.55 466.62 1527.79 461.58C1525.03 456.42 1521.25 452.4 1516.45 449.52C1511.65 446.52 1506.19 445.02 1500.07 445.02C1494.07 445.02 1488.61 446.52 1483.69 449.52C1478.89 452.4 1475.05 456.42 1472.17 461.58C1469.41 466.62 1468.03 472.38 1468.03 478.86C1468.03 485.22 1469.41 490.98 1472.17 496.14C1475.05 501.18 1478.89 505.2 1483.69 508.2C1488.61 511.08 1494.07 512.52 1500.07 512.52ZM1612.72 528C1606.72 528 1601.32 526.5 1596.52 523.5C1591.72 520.38 1587.94 516.18 1585.18 510.9C1582.42 505.62 1581.04 499.68 1581.04 493.08V448.62H1572.76C1570.24 448.62 1568.2 447.9 1566.64 446.46C1565.08 445.02 1564.3 443.22 1564.3 441.06C1564.3 438.66 1565.08 436.74 1566.64 435.3C1568.2 433.86 1570.24 433.14 1572.76 433.14H1581.04V407.22C1581.04 404.58 1581.88 402.42 1583.56 400.74C1585.24 399.06 1587.4 398.22 1590.04 398.22C1592.68 398.22 1594.84 399.06 1596.52 400.74C1598.2 402.42 1599.04 404.58 1599.04 407.22V433.14H1614.34C1616.86 433.14 1618.9 433.86 1620.46 435.3C1622.02 436.74 1622.8 438.66 1622.8 441.06C1622.8 443.22 1622.02 445.02 1620.46 446.46C1618.9 447.9 1616.86 448.62 1614.34 448.62H1599.04V493.08C1599.04 497.88 1600.36 501.9 1603 505.14C1605.64 508.38 1608.88 510 1612.72 510H1618.84C1621 510 1622.8 510.84 1624.24 512.52C1625.8 514.2 1626.58 516.36 1626.58 519C1626.58 521.64 1625.56 523.8 1623.52 525.48C1621.6 527.16 1619.08 528 1615.96 528H1612.72ZM1746.52 528.72C1736.8 528.72 1728.22 526.62 1720.78 522.42C1713.34 518.1 1707.46 512.22 1703.14 504.78C1698.94 497.22 1696.84 488.58 1696.84 478.86C1696.84 469.02 1698.94 460.38 1703.14 452.94C1707.46 445.38 1713.34 439.5 1720.78 435.3C1728.22 430.98 1736.8 428.82 1746.52 428.82C1756.12 428.82 1764.64 430.98 1772.08 435.3C1779.52 439.5 1785.34 445.38 1789.54 452.94C1793.86 460.38 1796.02 469.02 1796.02 478.86C1796.02 488.58 1793.92 497.22 1789.72 504.78C1785.52 512.22 1779.7 518.1 1772.26 522.42C1764.82 526.62 1756.24 528.72 1746.52 528.72ZM1746.52 512.52C1752.76 512.52 1758.28 511.08 1763.08 508.2C1767.88 505.32 1771.6 501.36 1774.24 496.32C1777 491.28 1778.38 485.46 1778.38 478.86C1778.38 472.26 1777 466.44 1774.24 461.4C1771.6 456.24 1767.88 452.22 1763.08 449.34C1758.28 446.46 1752.76 445.02 1746.52 445.02C1740.28 445.02 1734.76 446.46 1729.96 449.34C1725.16 452.22 1721.38 456.24 1718.62 461.4C1715.86 466.44 1714.48 472.26 1714.48 478.86C1714.48 485.46 1715.86 491.28 1718.62 496.32C1721.38 501.36 1725.16 505.32 1729.96 508.2C1734.76 511.08 1740.28 512.52 1746.52 512.52ZM1840.58 528C1838.66 528 1836.86 527.46 1835.18 526.38C1833.62 525.18 1832.54 523.74 1831.94 522.06L1805.3 442.14C1804.34 438.42 1804.34 435.42 1805.3 433.14C1806.38 430.74 1808.66 429.54 1812.14 429.54C1814.42 429.54 1816.28 430.2 1817.72 431.52C1819.28 432.72 1820.54 434.82 1821.5 437.82L1840.94 498.48L1859.3 436.38C1859.9 434.34 1860.92 432.72 1862.36 431.52C1863.8 430.2 1865.78 429.54 1868.3 429.54C1870.7 429.54 1872.62 430.2 1874.06 431.52C1875.62 432.72 1876.64 434.34 1877.12 436.38L1893.32 499.74L1913.12 437.82C1914.8 432.3 1917.92 429.54 1922.48 429.54C1925.84 429.54 1928.12 430.74 1929.32 433.14C1930.52 435.42 1930.46 438.42 1929.14 442.14L1902.5 522.06C1902.02 523.74 1901 525.18 1899.44 526.38C1897.88 527.46 1896.08 528 1894.04 528C1892.12 528 1890.32 527.46 1888.64 526.38C1886.96 525.18 1885.88 523.74 1885.4 522.06L1867.76 456.72L1849.22 522.06C1848.74 523.74 1847.66 525.18 1845.98 526.38C1844.42 527.46 1842.62 528 1840.58 528ZM1958.03 528.18C1955.39 528.18 1953.17 527.34 1951.37 525.66C1949.69 523.86 1948.85 521.64 1948.85 519V438.72C1948.85 435.96 1949.69 433.74 1951.37 432.06C1953.17 430.38 1955.39 429.54 1958.03 429.54C1960.79 429.54 1963.01 430.38 1964.69 432.06C1966.37 433.74 1967.21 435.96 1967.21 438.72V440.7C1970.93 436.98 1975.43 434.04 1980.71 431.88C1985.99 429.72 1991.69 428.64 1997.81 428.64C2006.09 428.64 2013.47 430.44 2019.95 434.04C2026.55 437.52 2031.71 442.68 2035.43 449.52C2039.27 456.36 2041.19 464.76 2041.19 474.72V519C2041.19 521.64 2040.29 523.86 2038.49 525.66C2036.81 527.34 2034.65 528.18 2032.01 528.18C2029.37 528.18 2027.15 527.34 2025.35 525.66C2023.67 523.86 2022.83 521.64 2022.83 519V474.72C2022.83 464.52 2020.07 457.08 2014.55 452.4C2009.15 447.6 2002.37 445.2 1994.21 445.2C1989.17 445.2 1984.61 446.22 1980.53 448.26C1976.45 450.3 1973.21 453.06 1970.81 456.54C1968.41 459.9 1967.21 463.8 1967.21 468.24V519C1967.21 521.64 1966.37 523.86 1964.69 525.66C1963.01 527.34 1960.79 528.18 1958.03 528.18ZM2133.28 528C2127.28 528 2124.28 525 2124.28 519V438.54C2124.28 432.54 2127.28 429.54 2133.28 429.54C2139.28 429.54 2142.28 432.54 2142.28 438.54V441.96C2145.88 437.76 2150.26 434.46 2155.42 432.06C2160.7 429.66 2166.4 428.46 2172.52 428.46C2179.72 428.46 2185.06 429.66 2188.54 432.06C2192.14 434.34 2193.52 437.1 2192.68 440.34C2192.08 442.86 2190.88 444.54 2189.08 445.38C2187.28 446.1 2185.18 446.22 2182.78 445.74C2175.1 444.18 2168.2 444.06 2162.08 445.38C2155.96 446.7 2151.1 449.16 2147.5 452.76C2144.02 456.36 2142.28 460.92 2142.28 466.44V519C2142.28 525 2139.28 528 2133.28 528ZM2222.8 528C2220.16 528 2217.94 527.16 2216.14 525.48C2214.46 523.68 2213.62 521.46 2213.62 518.82V438.72C2213.62 435.96 2214.46 433.74 2216.14 432.06C2217.94 430.38 2220.16 429.54 2222.8 429.54C2225.56 429.54 2227.78 430.38 2229.46 432.06C2231.14 433.74 2231.98 435.96 2231.98 438.72V518.82C2231.98 521.46 2231.14 523.68 2229.46 525.48C2227.78 527.16 2225.56 528 2222.8 528ZM2222.8 413.52C2219.56 413.52 2216.74 412.38 2214.34 410.1C2212.06 407.7 2210.92 404.88 2210.92 401.64C2210.92 398.4 2212.06 395.64 2214.34 393.36C2216.74 390.96 2219.56 389.76 2222.8 389.76C2226.04 389.76 2228.8 390.96 2231.08 393.36C2233.48 395.64 2234.68 398.4 2234.68 401.64C2234.68 404.88 2233.48 407.7 2231.08 410.1C2228.8 412.38 2226.04 413.52 2222.8 413.52ZM2301.96 528.72C2293.56 528.72 2285.76 527.46 2278.56 524.94C2271.48 522.3 2265.96 519 2262 515.04C2260.2 513.12 2259.42 510.96 2259.66 508.56C2260.02 506.04 2261.22 504 2263.26 502.44C2265.66 500.52 2268 499.74 2270.28 500.1C2272.68 500.34 2274.72 501.36 2276.4 503.16C2278.44 505.44 2281.68 507.6 2286.12 509.64C2290.68 511.56 2295.72 512.52 2301.24 512.52C2308.2 512.52 2313.48 511.38 2317.08 509.1C2320.8 506.82 2322.72 503.88 2322.84 500.28C2322.96 496.68 2321.22 493.56 2317.62 490.92C2314.14 488.28 2307.72 486.12 2298.36 484.44C2286.24 482.04 2277.42 478.44 2271.9 473.64C2266.5 468.84 2263.8 462.96 2263.8 456C2263.8 449.88 2265.6 444.84 2269.2 440.88C2272.8 436.8 2277.42 433.8 2283.06 431.88C2288.7 429.84 2294.58 428.82 2300.7 428.82C2308.62 428.82 2315.64 430.08 2321.76 432.6C2327.88 435.12 2332.74 438.6 2336.34 443.04C2338.02 444.96 2338.8 447 2338.68 449.16C2338.56 451.2 2337.54 452.94 2335.62 454.38C2333.7 455.7 2331.42 456.12 2328.78 455.64C2326.14 455.16 2323.92 454.08 2322.12 452.4C2319.12 449.52 2315.88 447.54 2312.4 446.46C2308.92 445.38 2304.9 444.84 2300.34 444.84C2295.06 444.84 2290.56 445.74 2286.84 447.54C2283.24 449.34 2281.44 451.98 2281.44 455.46C2281.44 457.62 2281.98 459.6 2283.06 461.4C2284.26 463.08 2286.54 464.64 2289.9 466.08C2293.26 467.4 2298.18 468.72 2304.66 470.04C2318.22 472.68 2327.58 476.46 2332.74 481.38C2338.02 486.18 2340.66 492.12 2340.66 499.2C2340.66 504.72 2339.16 509.7 2336.16 514.14C2333.28 518.58 2328.96 522.12 2323.2 524.76C2317.56 527.4 2310.48 528.72 2301.96 528.72ZM2372.69 528C2370.05 528 2367.89 527.22 2366.21 525.66C2364.65 523.98 2363.87 521.82 2363.87 519.18V396.24C2363.87 393.6 2364.65 391.5 2366.21 389.94C2367.89 388.26 2370.05 387.42 2372.69 387.42C2375.33 387.42 2377.43 388.26 2378.99 389.94C2380.67 391.5 2381.51 393.6 2381.51 396.24V469.5L2425.25 430.44C2427.05 428.76 2429.03 427.98 2431.19 428.1C2433.47 428.22 2435.39 429.18 2436.95 430.98C2438.63 432.78 2439.41 434.76 2439.29 436.92C2439.17 439.08 2438.21 441 2436.41 442.68L2403.29 472.2L2438.21 515.04C2439.77 516.96 2440.43 519.06 2440.19 521.34C2440.07 523.5 2438.99 525.42 2436.95 527.1C2435.03 528.66 2432.87 529.32 2430.47 529.08C2428.19 528.96 2426.27 527.94 2424.71 526.02L2390.51 483.72L2381.51 491.64V519.18C2381.51 521.82 2380.67 523.98 2378.99 525.66C2377.43 527.22 2375.33 528 2372.69 528Z" fill="#E770F1"/>
<path d="M1681.7 291.6C1674.4 291.6 1667.85 289.8 1662.05 286.2C1656.25 282.5 1651.65 277.55 1648.25 271.35C1644.95 265.05 1643.3 257.95 1643.3 250.05C1643.3 242.15 1645.1 235.05 1648.7 228.75C1652.4 222.45 1657.35 217.5 1663.55 213.9C1669.85 210.2 1676.9 208.35 1684.7 208.35C1692.5 208.35 1699.5 210.2 1705.7 213.9C1711.9 217.5 1716.8 222.45 1720.4 228.75C1724.1 235.05 1725.95 242.15 1725.95 250.05V283.5C1725.95 285.7 1725.2 287.55 1723.7 289.05C1722.3 290.45 1720.5 291.15 1718.3 291.15C1716.1 291.15 1714.25 290.45 1712.75 289.05C1711.35 287.55 1710.65 285.7 1710.65 283.5V277.95C1707.15 282.15 1702.9 285.5 1697.9 288C1693 290.4 1687.6 291.6 1681.7 291.6ZM1684.7 278.1C1689.8 278.1 1694.35 276.9 1698.35 274.5C1702.35 272 1705.5 268.65 1707.8 264.45C1710.1 260.15 1711.25 255.35 1711.25 250.05C1711.25 244.65 1710.1 239.85 1707.8 235.65C1705.5 231.35 1702.35 228 1698.35 225.6C1694.35 223.1 1689.8 221.85 1684.7 221.85C1679.7 221.85 1675.15 223.1 1671.05 225.6C1667.05 228 1663.85 231.35 1661.45 235.65C1659.15 239.85 1658 244.65 1658 250.05C1658 255.35 1659.15 260.15 1661.45 264.45C1663.85 268.65 1667.05 272 1671.05 274.5C1675.15 276.9 1679.7 278.1 1684.7 278.1ZM1768.22 291C1763.82 291 1759.92 289.8 1756.52 287.4C1753.12 285 1750.47 281.75 1748.57 277.65C1746.67 273.45 1745.72 268.65 1745.72 263.25V181.35C1745.72 179.15 1746.42 177.35 1747.82 175.95C1749.22 174.55 1751.02 173.85 1753.22 173.85C1755.42 173.85 1757.22 174.55 1758.62 175.95C1760.02 177.35 1760.72 179.15 1760.72 181.35V263.25C1760.72 266.95 1761.42 270 1762.82 272.4C1764.22 274.8 1766.02 276 1768.22 276H1771.97C1773.97 276 1775.57 276.7 1776.77 278.1C1778.07 279.5 1778.72 281.3 1778.72 283.5C1778.72 285.7 1777.77 287.5 1775.87 288.9C1773.97 290.3 1771.52 291 1768.52 291H1768.22ZM1801.34 326.1C1799.14 326.1 1797.29 325.35 1795.79 323.85C1794.39 322.45 1793.69 320.65 1793.69 318.45V250.05C1793.79 242.15 1795.64 235.05 1799.24 228.75C1802.84 222.45 1807.74 217.5 1813.94 213.9C1820.14 210.2 1827.14 208.35 1834.94 208.35C1842.84 208.35 1849.89 210.2 1856.09 213.9C1862.29 217.5 1867.19 222.45 1870.79 228.75C1874.49 235.05 1876.34 242.15 1876.34 250.05C1876.34 257.95 1874.64 265.05 1871.24 271.35C1867.94 277.55 1863.39 282.5 1857.59 286.2C1851.79 289.8 1845.24 291.6 1837.94 291.6C1832.04 291.6 1826.59 290.4 1821.59 288C1816.69 285.5 1812.49 282.15 1808.99 277.95V318.45C1808.99 320.65 1808.29 322.45 1806.89 323.85C1805.49 325.35 1803.64 326.1 1801.34 326.1ZM1834.94 278.1C1840.04 278.1 1844.59 276.9 1848.59 274.5C1852.59 272 1855.74 268.65 1858.04 264.45C1860.44 260.15 1861.64 255.35 1861.64 250.05C1861.64 244.65 1860.44 239.85 1858.04 235.65C1855.74 231.35 1852.59 228 1848.59 225.6C1844.59 223.1 1840.04 221.85 1834.94 221.85C1829.94 221.85 1825.39 223.1 1821.29 225.6C1817.29 228 1814.14 231.35 1811.84 235.65C1809.54 239.85 1808.39 244.65 1808.39 250.05C1808.39 255.35 1809.54 260.15 1811.84 264.45C1814.14 268.65 1817.29 272 1821.29 274.5C1825.39 276.9 1829.94 278.1 1834.94 278.1ZM1906.81 291.15C1904.61 291.15 1902.76 290.45 1901.26 289.05C1899.86 287.55 1899.16 285.7 1899.16 283.5V216.6C1899.16 214.3 1899.86 212.45 1901.26 211.05C1902.76 209.65 1904.61 208.95 1906.81 208.95C1909.11 208.95 1910.96 209.65 1912.36 211.05C1913.76 212.45 1914.46 214.3 1914.46 216.6V218.25C1917.56 215.15 1921.31 212.7 1925.71 210.9C1930.11 209.1 1934.86 208.2 1939.96 208.2C1946.86 208.2 1953.01 209.7 1958.41 212.7C1963.91 215.6 1968.21 219.9 1971.31 225.6C1974.51 231.3 1976.11 238.3 1976.11 246.6V283.5C1976.11 285.7 1975.36 287.55 1973.86 289.05C1972.46 290.45 1970.66 291.15 1968.46 291.15C1966.26 291.15 1964.41 290.45 1962.91 289.05C1961.51 287.55 1960.81 285.7 1960.81 283.5V246.6C1960.81 238.1 1958.51 231.9 1953.91 228C1949.41 224 1943.76 222 1936.96 222C1932.76 222 1928.96 222.85 1925.56 224.55C1922.16 226.25 1919.46 228.55 1917.46 231.45C1915.46 234.25 1914.46 237.5 1914.46 241.2V283.5C1914.46 285.7 1913.76 287.55 1912.36 289.05C1910.96 290.45 1909.11 291.15 1906.81 291.15ZM1906.81 261.15C1904.61 261.15 1902.76 260.45 1901.26 259.05C1899.86 257.55 1899.16 255.7 1899.16 253.5V181.5C1899.16 179.2 1899.86 177.35 1901.26 175.95C1902.76 174.55 1904.61 173.85 1906.81 173.85C1909.11 173.85 1910.96 174.55 1912.36 175.95C1913.76 177.35 1914.46 179.2 1914.46 181.5V253.5C1914.46 255.7 1913.76 257.55 1912.36 259.05C1910.96 260.45 1909.11 261.15 1906.81 261.15ZM2035.75 291.6C2028.45 291.6 2021.9 289.8 2016.1 286.2C2010.3 282.5 2005.7 277.55 2002.3 271.35C1999 265.05 1997.35 257.95 1997.35 250.05C1997.35 242.15 1999.15 235.05 2002.75 228.75C2006.45 222.45 2011.4 217.5 2017.6 213.9C2023.9 210.2 2030.95 208.35 2038.75 208.35C2046.55 208.35 2053.55 210.2 2059.75 213.9C2065.95 217.5 2070.85 222.45 2074.45 228.75C2078.15 235.05 2080 242.15 2080 250.05V283.5C2080 285.7 2079.25 287.55 2077.75 289.05C2076.35 290.45 2074.55 291.15 2072.35 291.15C2070.15 291.15 2068.3 290.45 2066.8 289.05C2065.4 287.55 2064.7 285.7 2064.7 283.5V277.95C2061.2 282.15 2056.95 285.5 2051.95 288C2047.05 290.4 2041.65 291.6 2035.75 291.6ZM2038.75 278.1C2043.85 278.1 2048.4 276.9 2052.4 274.5C2056.4 272 2059.55 268.65 2061.85 264.45C2064.15 260.15 2065.3 255.35 2065.3 250.05C2065.3 244.65 2064.15 239.85 2061.85 235.65C2059.55 231.35 2056.4 228 2052.4 225.6C2048.4 223.1 2043.85 221.85 2038.75 221.85C2033.75 221.85 2029.2 223.1 2025.1 225.6C2021.1 228 2017.9 231.35 2015.5 235.65C2013.2 239.85 2012.05 244.65 2012.05 250.05C2012.05 255.35 2013.2 260.15 2015.5 264.45C2017.9 268.65 2021.1 272 2025.1 274.5C2029.2 276.9 2033.75 278.1 2038.75 278.1Z" fill="#1058C5"/>
</svg>
