<svg width="2294" height="726" viewBox="0 0 2294 726" fill="none" xmlns="http://www.w3.org/2000/svg">
<path d="M674.101 448.524C690.356 396.85 694.215 342.074 685.364 288.632C676.513 235.189 655.202 184.582 623.156 140.907C591.11 97.2316 549.23 61.7165 500.906 37.2367C452.582 12.7569 399.173 0.00041981 345.003 1.03597e-08C290.832 -0.00041979 237.423 12.7553 189.098 37.2343C140.774 61.7134 98.8935 97.2278 66.8469 140.902C34.8003 184.577 13.4885 235.184 4.63691 288.627C-4.21463 342.069 -0.357146 396.845 15.8971 448.519L206.819 388.465C199.995 366.768 198.375 343.769 202.091 321.33C205.808 298.891 214.756 277.643 228.212 259.305C241.667 240.968 259.252 226.056 279.541 215.778C299.831 205.5 322.256 200.144 345.001 200.144C367.746 200.145 390.171 205.501 410.461 215.779C430.75 226.057 448.335 240.969 461.79 259.307C475.245 277.645 484.193 298.894 487.909 321.333C491.625 343.772 490.005 366.77 483.18 388.467L674.101 448.524Z" fill="#6BBDEB"/>
<path d="M674.101 448.524C690.356 396.85 694.215 342.074 685.364 288.632C676.513 235.189 655.202 184.582 623.156 140.907C591.11 97.2316 549.23 61.7165 500.906 37.2367C452.582 12.7569 399.173 0.00041981 345.003 1.03597e-08C290.832 -0.00041979 237.423 12.7553 189.098 37.2343C140.774 61.7134 98.8935 97.2278 66.8469 140.902C34.8003 184.577 13.4885 235.184 4.63691 288.627C-4.21463 342.069 -0.357146 396.845 15.8971 448.519L147.538 407.112C137.786 376.107 135.471 343.241 140.782 311.176C146.093 279.11 158.88 248.746 178.108 222.541C197.336 196.337 222.465 175.028 251.459 160.341C280.454 145.653 312.499 138 345.002 138C377.504 138 409.549 145.654 438.544 160.342C467.538 175.03 492.666 196.339 511.894 222.544C531.121 248.749 543.908 279.113 549.218 311.179C554.529 343.245 552.214 376.11 542.461 407.115L674.101 448.524Z" fill="#2377C5"/>
<path d="M674.101 448.524C690.356 396.85 694.215 342.074 685.364 288.632C676.513 235.189 655.202 184.582 623.156 140.907C591.11 97.2316 549.23 61.7165 500.906 37.2367C452.582 12.7569 399.173 0.00041981 345.003 1.03597e-08C290.832 -0.00041979 237.423 12.7553 189.098 37.2343C140.774 61.7134 98.8935 97.2278 66.8469 140.902C34.8003 184.577 13.4885 235.184 4.63691 288.627C-4.21463 342.069 -0.357146 396.845 15.8971 448.519L81.7177 427.815C68.7143 386.476 65.6283 342.655 72.7095 299.901C79.7908 257.147 96.8402 216.662 122.478 181.722C148.115 146.782 181.619 118.371 220.279 98.7875C258.938 79.2042 301.666 68.9997 345.002 69C388.339 69.0003 431.066 79.2055 469.725 98.7894C508.384 118.373 541.888 146.785 567.525 181.725C593.162 216.665 610.211 257.151 617.291 299.905C624.372 342.66 621.285 386.48 608.281 427.82L674.101 448.524Z" fill="#1050AF"/>
<path d="M253.928 463.891L344.805 534.464V724.875L63.9746 527.535L253.928 463.891Z" fill="#6BBDEB"/>
<path d="M253.64 463.627L344.71 534.375V598.726L192.3 484.502L253.64 463.627Z" fill="#6BBDEB"/>
<path d="M192.676 484.324L344.71 598.726V661.571L131.336 505.199L192.676 484.324Z" fill="#6BBDEB"/>
<path d="M435.527 464.186L344.65 534.759V725.17L625.481 527.83L435.527 464.186Z" fill="#6BBDEB"/>
<path d="M435.779 463.627L344.709 534.375V598.726L497.119 484.502L435.779 463.627Z" fill="#6BBDEB"/>
<path d="M496.367 484.324L344.333 598.726V661.571L557.707 505.199L496.367 484.324Z" fill="#6BBDEB"/>
<circle cx="344.334" cy="349.602" r="83.1669" fill="#003399"/>
<path d="M1063.18 416.148C1012.4 416.148 969.265 398.408 933.783 362.926C898.301 327.118 880.561 283.987 880.561 233.531C880.561 183.076 898.301 140.107 933.783 104.625C969.265 69.1432 1012.4 51.4023 1063.18 51.4023C1113.63 51.4023 1156.6 69.1432 1192.08 104.625C1227.57 140.107 1245.31 183.076 1245.31 233.531C1245.31 283.987 1227.57 327.118 1192.08 362.926C1156.6 398.408 1113.63 416.148 1063.18 416.148ZM1063.18 309.215C1083.69 309.215 1101.26 301.891 1115.91 287.242C1130.89 272.268 1138.37 254.365 1138.37 233.531C1138.37 212.698 1130.89 194.957 1115.91 180.309C1101.26 165.66 1083.69 158.336 1063.18 158.336C1042.34 158.336 1024.44 165.66 1009.47 180.309C994.818 194.957 987.494 212.698 987.494 233.531C987.494 254.365 994.818 272.268 1009.47 287.242C1024.44 301.891 1042.34 309.215 1063.18 309.215ZM1581.73 103.648C1617.21 68.8177 1660.02 51.4023 1710.15 51.4023C1760.61 51.4023 1803.57 69.1432 1839.06 104.625C1874.54 140.107 1892.28 183.076 1892.28 233.531V416.148H1785.35V233.531C1785.35 212.698 1777.86 194.957 1762.88 180.309C1748.24 165.66 1730.66 158.336 1710.15 158.336C1689.32 158.336 1671.41 165.66 1656.44 180.309C1641.79 194.957 1634.47 212.698 1634.47 233.531V416.148H1527.53V233.531C1527.53 212.698 1520.05 194.957 1505.07 180.309C1490.42 165.66 1472.85 158.336 1452.34 158.336C1431.5 158.336 1413.6 165.66 1398.63 180.309C1383.98 194.957 1376.65 212.698 1376.65 233.531V416.148H1269.72V233.531C1269.72 183.076 1287.46 140.107 1322.94 104.625C1358.43 69.1432 1401.56 51.4023 1452.34 51.4023C1502.47 51.4023 1545.6 68.8177 1581.73 103.648ZM2099.31 416.148C2048.53 416.148 2005.4 398.408 1969.92 362.926C1934.43 327.118 1916.69 283.987 1916.69 233.531C1916.69 183.076 1934.43 140.107 1969.92 104.625C2005.4 69.1432 2048.53 51.4023 2099.31 51.4023C2149.77 51.4023 2192.74 69.1432 2228.22 104.625C2263.7 140.107 2281.44 183.076 2281.44 233.531C2281.44 283.987 2263.7 327.118 2228.22 362.926C2192.74 398.408 2149.77 416.148 2099.31 416.148ZM2099.31 309.215C2119.82 309.215 2137.4 301.891 2152.04 287.242C2167.02 272.268 2174.51 254.365 2174.51 233.531C2174.51 212.698 2167.02 194.957 2152.04 180.309C2137.4 165.66 2119.82 158.336 2099.31 158.336C2078.48 158.336 2060.57 165.66 2045.6 180.309C2030.95 194.957 2023.63 212.698 2023.63 233.531C2023.63 254.365 2030.95 272.268 2045.6 287.242C2060.57 301.891 2078.48 309.215 2099.31 309.215Z" fill="#003399"/>
<path d="M1426.58 638.72C1417.82 638.72 1409.96 636.56 1403 632.24C1396.04 627.8 1390.52 621.86 1386.44 614.42C1382.48 606.86 1380.5 598.34 1380.5 588.86C1380.5 579.38 1382.66 570.86 1386.98 563.3C1391.42 555.74 1397.36 549.8 1404.8 545.48C1412.36 541.04 1420.82 538.82 1430.18 538.82C1439.54 538.82 1447.94 541.04 1455.38 545.48C1462.82 549.8 1468.7 555.74 1473.02 563.3C1477.46 570.86 1479.68 579.38 1479.68 588.86V629C1479.68 631.64 1478.78 633.86 1476.98 635.66C1475.3 637.34 1473.14 638.18 1470.5 638.18C1467.86 638.18 1465.64 637.34 1463.84 635.66C1462.16 633.86 1461.32 631.64 1461.32 629V622.34C1457.12 627.38 1452.02 631.4 1446.02 634.4C1440.14 637.28 1433.66 638.72 1426.58 638.72ZM1430.18 622.52C1436.3 622.52 1441.76 621.08 1446.56 618.2C1451.36 615.2 1455.14 611.18 1457.9 606.14C1460.66 600.98 1462.04 595.22 1462.04 588.86C1462.04 582.38 1460.66 576.62 1457.9 571.58C1455.14 566.42 1451.36 562.4 1446.56 559.52C1441.76 556.52 1436.3 555.02 1430.18 555.02C1424.18 555.02 1418.72 556.52 1413.8 559.52C1409 562.4 1405.16 566.42 1402.28 571.58C1399.52 576.62 1398.14 582.38 1398.14 588.86C1398.14 595.22 1399.52 600.98 1402.28 606.14C1405.16 611.18 1409 615.2 1413.8 618.2C1418.72 621.08 1424.18 622.52 1430.18 622.52ZM1530.4 638C1525.12 638 1520.44 636.56 1516.36 633.68C1512.28 630.8 1509.1 626.9 1506.82 621.98C1504.54 616.94 1503.4 611.18 1503.4 604.7V506.42C1503.4 503.78 1504.24 501.62 1505.92 499.94C1507.6 498.26 1509.76 497.42 1512.4 497.42C1515.04 497.42 1517.2 498.26 1518.88 499.94C1520.56 501.62 1521.4 503.78 1521.4 506.42V604.7C1521.4 609.14 1522.24 612.8 1523.92 615.68C1525.6 618.56 1527.76 620 1530.4 620H1534.9C1537.3 620 1539.22 620.84 1540.66 622.52C1542.22 624.2 1543 626.36 1543 629C1543 631.64 1541.86 633.8 1539.58 635.48C1537.3 637.16 1534.36 638 1530.76 638H1530.4ZM1570.15 680.12C1567.51 680.12 1565.29 679.22 1563.49 677.42C1561.81 675.74 1560.97 673.58 1560.97 670.94V588.86C1561.09 579.38 1563.31 570.86 1567.63 563.3C1571.95 555.74 1577.83 549.8 1585.27 545.48C1592.71 541.04 1601.11 538.82 1610.47 538.82C1619.95 538.82 1628.41 541.04 1635.85 545.48C1643.29 549.8 1649.17 555.74 1653.49 563.3C1657.93 570.86 1660.15 579.38 1660.15 588.86C1660.15 598.34 1658.11 606.86 1654.03 614.42C1650.07 621.86 1644.61 627.8 1637.65 632.24C1630.69 636.56 1622.83 638.72 1614.07 638.72C1606.99 638.72 1600.45 637.28 1594.45 634.4C1588.57 631.4 1583.53 627.38 1579.33 622.34V670.94C1579.33 673.58 1578.49 675.74 1576.81 677.42C1575.13 679.22 1572.91 680.12 1570.15 680.12ZM1610.47 622.52C1616.59 622.52 1622.05 621.08 1626.85 618.2C1631.65 615.2 1635.43 611.18 1638.19 606.14C1641.07 600.98 1642.51 595.22 1642.51 588.86C1642.51 582.38 1641.07 576.62 1638.19 571.58C1635.43 566.42 1631.65 562.4 1626.85 559.52C1622.05 556.52 1616.59 555.02 1610.47 555.02C1604.47 555.02 1599.01 556.52 1594.09 559.52C1589.29 562.4 1585.51 566.42 1582.75 571.58C1579.99 576.62 1578.61 582.38 1578.61 588.86C1578.61 595.22 1579.99 600.98 1582.75 606.14C1585.51 611.18 1589.29 615.2 1594.09 618.2C1599.01 621.08 1604.47 622.52 1610.47 622.52ZM1696.71 638.18C1694.07 638.18 1691.85 637.34 1690.05 635.66C1688.37 633.86 1687.53 631.64 1687.53 629V548.72C1687.53 545.96 1688.37 543.74 1690.05 542.06C1691.85 540.38 1694.07 539.54 1696.71 539.54C1699.47 539.54 1701.69 540.38 1703.37 542.06C1705.05 543.74 1705.89 545.96 1705.89 548.72V550.7C1709.61 546.98 1714.11 544.04 1719.39 541.88C1724.67 539.72 1730.37 538.64 1736.49 538.64C1744.77 538.64 1752.15 540.44 1758.63 544.04C1765.23 547.52 1770.39 552.68 1774.11 559.52C1777.95 566.36 1779.87 574.76 1779.87 584.72V629C1779.87 631.64 1778.97 633.86 1777.17 635.66C1775.49 637.34 1773.33 638.18 1770.69 638.18C1768.05 638.18 1765.83 637.34 1764.03 635.66C1762.35 633.86 1761.51 631.64 1761.51 629V584.72C1761.51 574.52 1758.75 567.08 1753.23 562.4C1747.83 557.6 1741.05 555.2 1732.89 555.2C1727.85 555.2 1723.29 556.22 1719.21 558.26C1715.13 560.3 1711.89 563.06 1709.49 566.54C1707.09 569.9 1705.89 573.8 1705.89 578.24V629C1705.89 631.64 1705.05 633.86 1703.37 635.66C1701.69 637.34 1699.47 638.18 1696.71 638.18ZM1696.71 602.18C1694.07 602.18 1691.85 601.34 1690.05 599.66C1688.37 597.86 1687.53 595.64 1687.53 593V506.6C1687.53 503.84 1688.37 501.62 1690.05 499.94C1691.85 498.26 1694.07 497.42 1696.71 497.42C1699.47 497.42 1701.69 498.26 1703.37 499.94C1705.05 501.62 1705.89 503.84 1705.89 506.6V593C1705.89 595.64 1705.05 597.86 1703.37 599.66C1701.69 601.34 1699.47 602.18 1696.71 602.18ZM1851.44 638.72C1842.68 638.72 1834.82 636.56 1827.86 632.24C1820.9 627.8 1815.38 621.86 1811.3 614.42C1807.34 606.86 1805.36 598.34 1805.36 588.86C1805.36 579.38 1807.52 570.86 1811.84 563.3C1816.28 555.74 1822.22 549.8 1829.66 545.48C1837.22 541.04 1845.68 538.82 1855.04 538.82C1864.4 538.82 1872.8 541.04 1880.24 545.48C1887.68 549.8 1893.56 555.74 1897.88 563.3C1902.32 570.86 1904.54 579.38 1904.54 588.86V629C1904.54 631.64 1903.64 633.86 1901.84 635.66C1900.16 637.34 1898 638.18 1895.36 638.18C1892.72 638.18 1890.5 637.34 1888.7 635.66C1887.02 633.86 1886.18 631.64 1886.18 629V622.34C1881.98 627.38 1876.88 631.4 1870.88 634.4C1865 637.28 1858.52 638.72 1851.44 638.72ZM1855.04 622.52C1861.16 622.52 1866.62 621.08 1871.42 618.2C1876.22 615.2 1880 611.18 1882.76 606.14C1885.52 600.98 1886.9 595.22 1886.9 588.86C1886.9 582.38 1885.52 576.62 1882.76 571.58C1880 566.42 1876.22 562.4 1871.42 559.52C1866.62 556.52 1861.16 555.02 1855.04 555.02C1849.04 555.02 1843.58 556.52 1838.66 559.52C1833.86 562.4 1830.02 566.42 1827.14 571.58C1824.38 576.62 1823 582.38 1823 588.86C1823 595.22 1824.38 600.98 1827.14 606.14C1830.02 611.18 1833.86 615.2 1838.66 618.2C1843.58 621.08 1849.04 622.52 1855.04 622.52Z" fill="#F0745D"/>
<rect x="871" y="479" width="415" height="201" rx="100.5" fill="#6BBDEB"/>
<path d="M1010.14 627C1008.38 627 1006.9 626.4 1005.7 625.2C1004.58 624 1004.02 622.52 1004.02 620.76V539.52C1004.02 537.76 1004.62 536.28 1005.82 535.08C1007.02 533.88 1008.46 533.28 1010.14 533.28C1011.9 533.28 1013.38 533.88 1014.58 535.08C1015.78 536.28 1016.38 537.76 1016.38 539.52V614.52H1059.82C1061.58 614.52 1063.06 615.12 1064.26 616.32C1065.46 617.52 1066.06 619 1066.06 620.76C1066.06 622.52 1065.46 624 1064.26 625.2C1063.06 626.4 1061.58 627 1059.82 627H1010.14ZM1147.25 627C1145.49 627 1144.01 626.4 1142.81 625.2C1141.61 624 1141.01 622.52 1141.01 620.76V539.52C1141.01 537.68 1141.61 536.2 1142.81 535.08C1144.01 533.88 1145.49 533.28 1147.25 533.28C1149.09 533.28 1150.57 533.88 1151.69 535.08C1152.89 536.2 1153.49 537.68 1153.49 539.52V620.76C1153.49 622.52 1152.89 624 1151.69 625.2C1150.57 626.4 1149.09 627 1147.25 627Z" fill="white"/>
</svg>
