<svg width="690" height="726" viewBox="0 0 690 726" fill="none" xmlns="http://www.w3.org/2000/svg">
<path d="M674.101 448.524C690.356 396.85 694.215 342.074 685.364 288.632C676.513 235.189 655.202 184.582 623.156 140.907C591.11 97.2316 549.23 61.7165 500.906 37.2367C452.582 12.7569 399.173 0.00041981 345.003 1.03597e-08C290.832 -0.00041979 237.423 12.7553 189.098 37.2343C140.774 61.7134 98.8935 97.2278 66.8469 140.902C34.8003 184.577 13.4885 235.184 4.63691 288.627C-4.21463 342.069 -0.357146 396.845 15.8971 448.519L206.819 388.465C199.995 366.768 198.375 343.769 202.091 321.33C205.808 298.891 214.756 277.643 228.212 259.305C241.667 240.968 259.252 226.056 279.541 215.778C299.831 205.5 322.256 200.144 345.001 200.144C367.746 200.145 390.171 205.501 410.461 215.779C430.75 226.057 448.335 240.969 461.79 259.307C475.245 277.645 484.193 298.894 487.909 321.333C491.625 343.772 490.005 366.77 483.18 388.467L674.101 448.524Z" fill="#6BBDEB"/>
<path d="M674.101 448.524C690.356 396.85 694.215 342.074 685.364 288.632C676.513 235.189 655.202 184.582 623.156 140.907C591.11 97.2316 549.23 61.7165 500.906 37.2367C452.582 12.7569 399.173 0.00041981 345.003 1.03597e-08C290.832 -0.00041979 237.423 12.7553 189.098 37.2343C140.774 61.7134 98.8935 97.2278 66.8469 140.902C34.8003 184.577 13.4885 235.184 4.63691 288.627C-4.21463 342.069 -0.357146 396.845 15.8971 448.519L147.538 407.112C137.786 376.107 135.471 343.241 140.782 311.176C146.093 279.11 158.88 248.746 178.108 222.541C197.336 196.337 222.465 175.028 251.459 160.341C280.454 145.653 312.499 138 345.002 138C377.504 138 409.549 145.654 438.544 160.342C467.538 175.03 492.666 196.339 511.894 222.544C531.121 248.749 543.908 279.113 549.218 311.179C554.529 343.245 552.214 376.11 542.461 407.115L674.101 448.524Z" fill="#2377C5"/>
<path d="M674.101 448.524C690.356 396.85 694.215 342.074 685.364 288.632C676.513 235.189 655.202 184.582 623.156 140.907C591.11 97.2316 549.23 61.7165 500.906 37.2367C452.582 12.7569 399.173 0.00041981 345.003 1.03597e-08C290.832 -0.00041979 237.423 12.7553 189.098 37.2343C140.774 61.7134 98.8935 97.2278 66.8469 140.902C34.8003 184.577 13.4885 235.184 4.63691 288.627C-4.21463 342.069 -0.357146 396.845 15.8971 448.519L81.7177 427.815C68.7143 386.476 65.6283 342.655 72.7095 299.901C79.7908 257.147 96.8402 216.662 122.478 181.722C148.115 146.782 181.619 118.371 220.279 98.7875C258.938 79.2042 301.666 68.9997 345.002 69C388.339 69.0003 431.066 79.2055 469.725 98.7894C508.384 118.373 541.888 146.785 567.525 181.725C593.162 216.665 610.211 257.151 617.291 299.905C624.372 342.66 621.285 386.48 608.281 427.82L674.101 448.524Z" fill="#1050AF"/>
<path d="M253.928 463.891L344.805 534.464V724.875L63.9746 527.535L253.928 463.891Z" fill="#6BBDEB"/>
<path d="M253.64 463.627L344.71 534.375V598.726L192.3 484.502L253.64 463.627Z" fill="#6BBDEB"/>
<path d="M192.676 484.324L344.71 598.726V661.571L131.336 505.199L192.676 484.324Z" fill="#6BBDEB"/>
<path d="M435.527 464.186L344.65 534.759V725.17L625.481 527.83L435.527 464.186Z" fill="#6BBDEB"/>
<path d="M435.779 463.627L344.709 534.375V598.726L497.119 484.502L435.779 463.627Z" fill="#6BBDEB"/>
<path d="M496.367 484.324L344.333 598.726V661.571L557.707 505.199L496.367 484.324Z" fill="#6BBDEB"/>
<circle cx="344.334" cy="349.602" r="83.1669" fill="#003399"/>
</svg>
