<svg width="917" height="985" viewBox="0 0 917 985" fill="none" xmlns="http://www.w3.org/2000/svg">
<mask id="path-1-inside-1" fill="white">
<path d="M895.647 595.934C917.245 527.277 922.371 454.498 910.611 383.492C898.852 312.485 870.537 245.245 827.959 187.216C785.381 129.187 729.737 81.9999 665.531 49.4747C601.325 16.9495 530.363 0.000557783 458.389 1.37644e-08C386.415 -0.000557755 315.453 16.9473 251.246 49.4715C187.04 81.9957 131.395 129.182 88.8164 187.21C46.2375 245.239 17.9215 312.478 6.16085 383.485C-5.59979 454.491 -0.474523 527.269 21.1217 595.927L274.791 516.135C265.723 487.308 263.572 456.75 268.509 426.937C273.447 397.123 285.337 368.891 303.214 344.527C321.092 320.163 344.456 300.35 371.414 286.694C398.372 273.038 428.167 265.922 458.387 265.923C488.607 265.923 518.402 273.039 545.36 286.696C572.318 300.352 595.681 320.165 613.559 344.529C631.436 368.894 643.325 397.126 648.262 426.94C653.2 456.753 651.047 487.311 641.979 516.138L895.647 595.934Z"/>
</mask>
<path d="M895.647 595.934C917.245 527.277 922.371 454.498 910.611 383.492C898.852 312.485 870.537 245.245 827.959 187.216C785.381 129.187 729.737 81.9999 665.531 49.4747C601.325 16.9495 530.363 0.000557783 458.389 1.37644e-08C386.415 -0.000557755 315.453 16.9473 251.246 49.4715C187.04 81.9957 131.395 129.182 88.8164 187.21C46.2375 245.239 17.9215 312.478 6.16085 383.485C-5.59979 454.491 -0.474523 527.269 21.1217 595.927L274.791 516.135C265.723 487.308 263.572 456.75 268.509 426.937C273.447 397.123 285.337 368.891 303.214 344.527C321.092 320.163 344.456 300.35 371.414 286.694C398.372 273.038 428.167 265.922 458.387 265.923C488.607 265.923 518.402 273.039 545.36 286.696C572.318 300.352 595.681 320.165 613.559 344.529C631.436 368.894 643.325 397.126 648.262 426.94C653.2 456.753 651.047 487.311 641.979 516.138L895.647 595.934Z" fill="#071D69" stroke="#8F8F8F" stroke-width="2" mask="url(#path-1-inside-1)"/>
<path d="M337.643 637.853L458.386 731.621V984.611L85.2598 722.414L337.643 637.853Z" fill="#0D49A3"/>
<path d="M579.165 638.241L458.422 732.009V984.999L831.549 722.803L579.165 638.241Z" fill="#0D49A3"/>
</svg>
