<svg width="1000" height="1000" viewBox="0 0 1000 1000" fill="none" xmlns="http://www.w3.org/2000/svg">
<path d="M474 15.0111C490.089 5.7222 509.911 5.7222 526 15.0111L907.013 234.989C923.102 244.278 933.013 261.444 933.013 280.022V719.978C933.013 738.556 923.102 755.722 907.013 765.011L526 984.989C509.911 994.278 490.089 994.278 474 984.989L92.9873 765.011C76.8984 755.722 66.9873 738.556 66.9873 719.978V280.022C66.9873 261.444 76.8984 244.278 92.9873 234.989L474 15.0111Z" fill="#FCB040"/>
<path d="M474 15.0111C490.089 5.7222 509.911 5.7222 526 15.0111L907.013 234.989C923.102 244.278 933.013 261.444 933.013 280.022V719.978C933.013 738.556 923.102 755.722 907.013 765.011L526 984.989C509.911 994.278 490.089 994.278 474 984.989L92.9873 765.011C76.8984 755.722 66.9873 738.556 66.9873 719.978V280.022C66.9873 261.444 76.8984 244.278 92.9873 234.989L474 15.0111Z" fill="url(#paint0_linear)"/>
<path d="M266.665 267.749L401.147 267.755L757.647 729.777L630.926 729.777L266.665 267.749Z" fill="white"/>
<path d="M403.164 733.744L266.665 733.743L598.164 266.243L733.164 266.243L403.164 733.744Z" fill="white"/>
<defs>
<linearGradient id="paint0_linear" x1="500" y1="0" x2="500" y2="1000" gradientUnits="userSpaceOnUse">
<stop stop-color="#FCD13E"/>
<stop offset="1" stop-color="white" stop-opacity="0"/>
</linearGradient>
</defs>
</svg>
