<?xml version="1.0" encoding="UTF-8"?>
<svg width="98px" height="94px" viewBox="0 0 98 94" version="1.1" xmlns="http://www.w3.org/2000/svg" xmlns:xlink="http://www.w3.org/1999/xlink">
    <!-- Generator: Sketch 60.1 (88133) - https://sketch.com -->
    <title>logo-dark-colored</title>
    <desc>Created with Sketch.</desc>
    <defs>
        <linearGradient x1="25.501%" y1="13.681%" x2="73.12%" y2="84.309%" id="linearGradient-1">
            <stop stop-color="#FF5274" offset="0%"></stop>
            <stop stop-color="#6446FA" offset="100%"></stop>
        </linearGradient>
    </defs>
    <g id="Page-1" stroke="none" stroke-width="1" fill="none" fill-rule="evenodd">
        <g id="logo-dark-colored" fill="url(#linearGradient-1)" fill-rule="nonzero">
            <path d="M29.5,76.398 C31.474,72.53 35.49,69.882 40.124,69.882 C46.709,69.882 52.047,75.23 52.047,81.828 C52.047,88.426 46.71,93.774 40.124,93.774 C35.49,93.774 31.474,91.126 29.5,87.258 L18.445,87.258 C8.268,87.258 0.018,78.992 0.018,68.796 C0.018,58.599 8.268,50.333 18.445,50.333 L44.42,50.333 L40.033,43.817 L18.443,43.817 C8.269,43.817 0.019,35.551 0.019,25.355 C0.019,15.158 8.269,6.892 18.446,6.892 C24.346,6.892 29.286,9.175 32.866,13.862 C33.1,14.168 33.997,15.472 36.111,18.568 L45.798,32.957 L79.147,32.957 C83.337,32.957 86.734,29.553 86.734,25.355 C86.734,21.156 83.337,17.753 79.147,17.753 L68.09,17.753 C66.117,21.621 62.1,24.269 57.467,24.269 C50.882,24.269 45.543,18.92 45.543,12.323 C45.543,5.725 50.882,0.376 57.467,0.376 C62.1,0.376 66.117,3.024 68.09,6.892 L79.146,6.892 C89.323,6.892 97.573,15.158 97.573,25.355 C97.573,35.551 89.323,43.817 79.146,43.817 L53.108,43.817 L57.495,50.333 L79.145,50.333 C89.323,50.333 97.573,58.599 97.573,68.796 C97.573,78.992 89.323,87.258 79.146,87.258 C73.512,87.258 68.286,84.702 64.606,80.125 L61.924,76.332 L51.732,61.194 L18.445,61.194 C14.255,61.194 10.857,64.597 10.857,68.796 C10.857,72.994 14.254,76.398 18.445,76.398 L29.5,76.398 Z M69.8645,72.048249 C70.9741549,72.8820598 72.0996549,73.3893101 73.241,73.57 C77.431,73.57 80.828,70.166 80.828,65.968 C80.828,61.769 77.431,58.366 73.241,58.366 L58.901,58.366 L64.934,67.328 C67.1113451,69.6410219 68.7548451,71.2144382 69.8645,72.048249 Z M22.936,24.67 C21.474,22.757 19.749,21.96 17.123,21.96 C12.933,21.96 9.535,25.363 9.535,29.562 C9.535,33.76 12.932,37.164 17.123,37.164 L31.401,37.164 L25.823,28.878 C24.873,27.348 23.9106667,25.9453333 22.936,24.67 Z" id="Shape"></path>
        </g>
    </g>
</svg>