<svg width="246" height="258" viewBox="0 0 246 258" fill="none" xmlns="http://www.w3.org/2000/svg">
<path d="M239.829 159.574C245.612 141.19 246.985 121.702 243.836 102.688C240.687 83.6748 233.105 65.6698 221.704 50.1313C210.303 34.5927 195.403 21.9573 178.211 13.248C161.018 4.53861 142.016 0.000149359 122.744 3.68573e-09C103.471 -0.000149351 84.4694 4.53802 67.2768 13.2471C50.0842 21.9562 35.184 34.5914 23.7825 50.1297C12.3811 65.6681 4.79888 83.6729 1.6497 102.687C-1.49947 121.7 -0.127064 141.188 5.6558 159.573L73.5814 138.207C71.1533 130.487 70.5771 122.305 71.8993 114.322C73.2216 106.339 76.4052 98.7788 81.1923 92.2547C85.9794 85.7306 92.2356 80.4254 99.4543 76.7688C106.673 73.1121 114.651 71.2066 122.743 71.2067C130.835 71.2067 138.814 73.1123 146.032 76.7691C153.251 80.4259 159.507 85.7312 164.294 92.2554C169.081 98.7795 172.264 106.339 173.587 114.323C174.909 122.306 174.332 130.488 171.904 138.207L239.829 159.574Z" fill="#6BBDEB"/>
<path d="M239.829 159.574C245.612 141.19 246.985 121.702 243.836 102.688C240.687 83.6748 233.105 65.6698 221.704 50.1313C210.303 34.5927 195.403 21.9573 178.211 13.248C161.018 4.53861 142.016 0.000149359 122.744 3.68573e-09C103.471 -0.000149351 84.4694 4.53802 67.2768 13.2471C50.0842 21.9562 35.184 34.5914 23.7825 50.1297C12.3811 65.6681 4.79888 83.6729 1.6497 102.687C-1.49947 121.7 -0.127064 141.188 5.6558 159.573L52.4906 144.841C49.0209 133.81 48.1975 122.117 50.087 110.709C51.9765 99.3009 56.5258 88.498 63.3667 79.175C70.2075 69.852 79.1476 62.2708 89.4632 57.0454C99.7788 51.82 111.18 49.097 122.743 49.0971C134.307 49.0972 145.708 51.8203 156.024 57.0459C166.339 62.2715 175.279 69.8528 182.12 79.1759C188.96 88.499 193.51 99.302 195.399 110.71C197.288 122.118 196.465 133.811 192.995 144.842L239.829 159.574Z" fill="#2377C5"/>
<path d="M239.829 159.574C245.612 141.19 246.985 121.702 243.836 102.688C240.687 83.6748 233.105 65.6698 221.704 50.1313C210.303 34.5927 195.403 21.9573 178.211 13.248C161.018 4.53861 142.016 0.000149359 122.744 3.68573e-09C103.471 -0.000149351 84.4694 4.53802 67.2768 13.2471C50.0842 21.9562 35.184 34.5914 23.7825 50.1297C12.3811 65.6681 4.79888 83.6729 1.6497 102.687C-1.49947 121.7 -0.127064 141.188 5.6558 159.573L29.0732 152.207C24.4469 137.499 23.349 121.909 25.8683 106.698C28.3877 91.4869 34.4535 77.083 43.5746 64.6524C52.6958 52.2217 64.6159 42.1135 78.37 35.1462C92.1241 28.179 107.326 24.5484 122.744 24.5486C138.162 24.5487 153.363 28.1795 167.117 35.1469C180.871 42.1144 192.791 52.2227 201.912 64.6536C211.033 77.0844 217.099 91.4884 219.618 106.699C222.137 121.91 221.039 137.501 216.412 152.208L239.829 159.574Z" fill="#1050AF"/>
<path d="M90.3419 165.043L122.673 190.151V257.895L22.7607 187.686L90.3419 165.043Z" fill="#6BBDEB"/>
<path d="M90.2394 164.949L122.64 190.12V213.014L68.416 172.376L90.2394 164.949Z" fill="#6BBDEB"/>
<path d="M68.5495 172.312L122.639 213.014V235.373L46.7261 179.739L68.5495 172.312Z" fill="#6BBDEB"/>
<path d="M154.95 165.148L122.619 190.257V258.001L222.532 187.792L154.95 165.148Z" fill="#6BBDEB"/>
<path d="M155.04 164.949L122.64 190.12V213.014L176.864 172.376L155.04 164.949Z" fill="#6BBDEB"/>
<path d="M176.596 172.312L122.506 213.014V235.373L198.419 179.739L176.596 172.312Z" fill="#6BBDEB"/>
<circle cx="122.506" cy="124.38" r="29.5888" fill="white"/>
</svg>
